<svg width="32" height="32" viewBox="0 0 32 32" fill="none" xmlns="http://www.w3.org/2000/svg">
<path d="M15.7808 32C24.4963 32 31.5616 24.8366 31.5616 16C31.5616 7.16344 24.4963 0 15.7808 0C7.06531 0 0 7.16344 0 16C0 24.8366 7.06531 32 15.7808 32Z" fill="#E84142"/>
<path d="M21.3474 16.4157C21.8941 15.4583 22.7764 15.4583 23.3231 16.4157L26.7278 22.4756C27.2745 23.4331 26.8272 24.2142 25.7337 24.2142H18.8746C17.7936 24.2142 17.3463 23.4331 17.8806 22.4756L21.3474 16.4157ZM14.7617 4.7496C15.3084 3.79212 16.1782 3.79212 16.725 4.7496L17.4829 6.13543L19.2723 9.32283C19.7072 10.2299 19.7072 11.3008 19.2723 12.2079L13.2706 22.7528C12.7239 23.6094 11.8168 24.1512 10.8103 24.2142H5.82751C4.73403 24.2142 4.2867 23.4457 4.83344 22.4756L14.7617 4.7496Z" fill="white"/>
</svg>
