<svg width="32" height="32" viewBox="0 0 32 32" fill="none" xmlns="http://www.w3.org/2000/svg">
<g clip-path="url(#clip0_3652_5307)">
<path d="M16 32C24.8366 32 32 24.8366 32 16C32 7.16344 24.8366 0 16 0C7.16344 0 0 7.16344 0 16C0 24.8366 7.16344 32 16 32Z" fill="#0AC18E"/>
<path d="M20.99 10.6274C20.186 8.80409 18.3382 8.41424 16.0763 8.79191L15.3494 5.97363L13.6357 6.41627L14.3504 9.22642C13.8997 9.34013 13.4367 9.43759 12.9778 9.56754L12.2631 6.77363L10.5494 7.21627L11.2763 10.0345C10.9068 10.1401 7.81641 10.932 7.81641 10.932L8.28747 12.7675C8.28747 12.7675 9.54636 12.4142 9.53417 12.4427C10.2327 12.2599 10.5616 12.6092 10.7159 12.9381L12.7139 20.662C12.7382 20.8853 12.6976 21.267 12.2184 21.397C12.2469 21.4132 10.9717 21.7178 10.9717 21.7178L11.1585 23.8579C11.1585 23.8579 14.2205 23.0741 14.6225 22.9726L15.3575 25.8234L17.0712 25.3807L16.3362 22.5097C16.8073 22.4 17.2662 22.2863 17.7129 22.1686L18.4438 25.0234L20.1575 24.5807L19.4225 21.734C22.0621 21.0924 23.9261 19.4274 23.5443 16.8812C23.3007 15.3462 21.6235 14.0873 20.2306 13.9452C21.0875 13.1858 21.522 12.0772 20.99 10.6274ZM20.1656 17.3483C20.5068 19.8701 17.0022 20.1787 15.8448 20.4833L14.8377 16.7107C15.9991 16.4061 19.589 15.1269 20.1656 17.3483ZM18.054 12.2112C18.4154 14.4528 15.4184 14.7127 14.4519 14.9604L13.5342 11.5371C14.5047 11.2975 17.3189 10.1361 18.054 12.2112Z" fill="white"/>
</g>
<defs>
<clipPath id="clip0_3652_5307">
<rect width="32" height="32" fill="white"/>
</clipPath>
</defs>
</svg>
