<svg width="32" height="32" viewBox="0 0 32 32" fill="none" xmlns="http://www.w3.org/2000/svg">
<path d="M31.5177 19.8705C29.3808 28.442 20.6992 33.6584 12.1267 31.521C3.55778 29.3841 -1.65868 20.702 0.479176 12.1312C2.61515 3.5587 11.2967 -1.65814 19.8666 0.478775C28.4385 2.61569 33.6546 11.2987 31.5175 19.8706L31.5176 19.8705H31.5177Z" fill="#F7931A"/>
<path d="M23.0534 13.7204C23.3719 11.5911 21.7508 10.4466 19.5341 9.68305L20.2532 6.79879L18.4975 6.36131L17.7975 9.16962C17.3359 9.0545 16.8619 8.94603 16.3908 8.8385L17.0959 6.01165L15.3412 5.57416L14.6217 8.45748C14.2398 8.37051 13.8646 8.28456 13.5006 8.194L13.5027 8.18493L11.0815 7.58031L10.6144 9.45555C10.6144 9.45555 11.917 9.75414 11.8896 9.77252C12.6006 9.94997 12.7291 10.4206 12.7078 10.7937L11.8887 14.0795C11.9376 14.0919 12.0011 14.1099 12.0712 14.1381C12.0126 14.1235 11.9503 14.1077 11.8856 14.0922L10.7375 18.6952C10.6506 18.9112 10.43 19.2354 9.93294 19.1123C9.95054 19.1378 8.65685 18.7938 8.65685 18.7938L7.78516 20.8036L10.07 21.3731C10.495 21.4797 10.9115 21.5912 11.3217 21.6961L10.5952 24.6135L12.3489 25.0509L13.0684 22.1646C13.5475 22.2946 14.0124 22.4146 14.4676 22.5277L13.7505 25.4005L15.5063 25.8379L16.2328 22.9261C19.2267 23.4927 21.4779 23.2642 22.4254 20.5563C23.189 18.376 22.3874 17.1185 20.8123 16.2984C21.9595 16.0338 22.8236 15.2793 23.054 13.7206L23.0535 13.7202L23.0534 13.7204ZM19.042 19.3455C18.4994 21.5257 14.8285 20.3471 13.6384 20.0516L14.6025 16.1866C15.7926 16.4837 19.609 17.0717 19.042 19.3455H19.042ZM19.585 13.6888C19.09 15.6719 16.0347 14.6644 15.0436 14.4174L15.9177 10.9121C16.9088 11.1591 20.1006 11.6202 19.5851 13.6888H19.585Z" fill="white"/>
</svg>
