<svg width="40" height="40" viewBox="0 0 40 40" fill="none" xmlns="http://www.w3.org/2000/svg">
<g clip-path="url(#clip0_1_31)">
<path d="M39.4997 20C39.4997 30.7695 30.7693 39.5 19.9997 39.5C9.23016 39.5 0.49971 30.7695 0.49971 20C0.49971 9.23042 9.23016 0.499977 19.9997 0.499977C30.7693 0.499977 39.4997 9.23042 39.4997 20Z" fill="#6DA544" stroke="#D8D9E2"/>
<path d="M19.9999 7.82609L36.5216 20L19.9999 32.1739L3.47817 20L19.9999 7.82609Z" fill="#FFDA44"/>
<path d="M19.9999 26.9565C23.8419 26.9565 26.9564 23.842 26.9564 20C26.9564 16.1581 23.8419 13.0435 19.9999 13.0435C16.158 13.0435 13.0434 16.1581 13.0434 20C13.0434 23.842 16.158 26.9565 19.9999 26.9565Z" fill="#F0F0F0"/>
<path d="M16.5216 19.5653C15.3119 19.5653 14.1445 19.7493 13.0456 20.0907C13.0943 23.8907 16.1883 26.9566 19.9999 26.9566C22.3568 26.9566 24.4383 25.7834 25.6967 23.9904C23.5438 21.2953 20.2312 19.5653 16.5216 19.5653Z" fill="#0052B4"/>
<path d="M26.8275 21.3328C26.9112 20.9013 26.9565 20.456 26.9565 20C26.9565 16.158 23.8419 13.0435 20 13.0435C17.1333 13.0435 14.6723 14.778 13.6073 17.2544C14.5487 17.0593 15.5234 16.9566 16.5218 16.9566C20.5622 16.9565 24.2173 18.636 26.8275 21.3328Z" fill="#0052B4"/>
</g>
<defs>
<clipPath id="clip0_1_31">
<rect width="40" height="40" fill="white"/>
</clipPath>
</defs>
</svg>
