<svg width="34" height="34" viewBox="0 0 34 34" fill="none" xmlns="http://www.w3.org/2000/svg">
<circle cx="17" cy="17" r="16" fill="white" stroke="#D8D9E2"/>
<path d="M12.1402 16.9206C12.0924 17.8031 12.7315 18.5586 13.5617 18.6094C13.5916 18.6094 13.6215 18.6094 13.6513 18.6094C14.4875 18.6094 15.1625 17.892 15.1565 17.0032C15.1565 16.1143 14.4816 15.3969 13.6454 15.4033C12.845 15.4033 12.182 16.0699 12.1402 16.9206Z" fill="#0033AD"/>
<path d="M6.51416 16.5079C6.24539 16.4889 6.01245 16.7111 6.0005 16.9968C5.98856 17.2824 6.19163 17.53 6.46041 17.5427C6.72918 17.5618 6.95615 17.3396 6.97407 17.0539C6.99199 16.7682 6.78294 16.527 6.51416 16.5079Z" fill="#0033AD"/>
<path d="M12.0449 7.61346C12.2838 7.48648 12.3793 7.16905 12.2599 6.9151C12.1404 6.66116 11.8418 6.55958 11.6029 6.68655C11.364 6.81353 11.2684 7.12461 11.3879 7.37856C11.5073 7.63885 11.8 7.74678 12.0449 7.61346C12.0449 7.61346 12.0389 7.61346 12.0449 7.61346Z" fill="#0033AD"/>
<path d="M13.5742 10.4514C13.9445 10.2546 14.0939 9.77208 13.9087 9.37846C13.7235 8.98484 13.2696 8.82613 12.8993 9.02294C12.529 9.21975 12.3797 9.70224 12.5648 10.0959C12.75 10.4895 13.2039 10.6482 13.5742 10.4514Z" fill="#0033AD"/>
<path d="M8.4257 12.4004C8.7124 12.5973 9.09466 12.5147 9.28579 12.21C9.47094 11.9053 9.3933 11.4989 9.1066 11.2958C8.81991 11.099 8.43765 11.1815 8.24652 11.4862C8.05539 11.791 8.13901 12.2036 8.4257 12.4004Z" fill="#0033AD"/>
<path d="M9.33911 16.2222C8.92101 16.1968 8.56862 16.5333 8.54472 16.9777C8.52083 17.4221 8.83739 17.7967 9.25549 17.8221C9.67359 17.8475 10.026 17.511 10.0499 17.0666C10.0738 16.6285 9.75721 16.2476 9.33911 16.2222Z" fill="#0033AD"/>
<path d="M8.50899 21.5996C8.20437 21.7646 8.07895 22.1583 8.23424 22.4884C8.38953 22.8122 8.75985 22.9455 9.07043 22.7804C9.37505 22.6154 9.50048 22.2217 9.34518 21.8916C9.18989 21.5678 8.8136 21.4345 8.50899 21.5996Z" fill="#0033AD"/>
<path d="M11.4356 14.5653C11.8478 14.851 12.3973 14.7303 12.6601 14.2923C12.9288 13.8542 12.8154 13.2702 12.4032 12.9908C11.9911 12.7051 11.4416 12.8257 11.1788 13.2638C10.91 13.6955 11.0235 14.2796 11.4356 14.5653Z" fill="#0033AD"/>
<path d="M20.7236 10.3879C21.0701 10.6291 21.5419 10.5276 21.7689 10.1593C21.9959 9.79112 21.9003 9.28958 21.5539 9.04833C21.2074 8.80708 20.7356 8.90866 20.5086 9.27688C20.2757 9.65145 20.3713 10.1466 20.7236 10.3879Z" fill="#0033AD"/>
<path d="M22.2643 7.56272C22.4913 7.72143 22.7899 7.6516 22.9392 7.41035C23.0886 7.1691 23.0229 6.85167 22.7959 6.69295C22.5689 6.53423 22.2703 6.60407 22.121 6.83897C21.9776 7.08022 22.0433 7.404 22.2643 7.56272Z" fill="#0033AD"/>
<path d="M20.8369 15.3906C20.0067 15.3398 19.2899 16.0191 19.2481 16.9016C19.2003 17.7841 19.8394 18.5459 20.6697 18.5903C20.6995 18.5903 20.7294 18.5903 20.7533 18.5903C21.5835 18.5903 22.2584 17.8729 22.2584 16.9841C22.2644 16.1397 21.6372 15.435 20.8369 15.3906Z" fill="#0033AD"/>
<path d="M14.0699 14.451C14.3267 14.9907 14.8463 15.3335 15.4197 15.3335C16.2499 15.3335 16.9249 14.6161 16.9249 13.7273C16.9249 13.4797 16.8711 13.2321 16.7636 13.0035C16.3873 12.21 15.4795 11.8925 14.7388 12.2925C13.9922 12.6988 13.6936 13.6638 14.0699 14.451Z" fill="#0033AD"/>
<path d="M25.8902 12.4004C26.1948 12.2353 26.3143 11.8354 26.159 11.5116C26.0037 11.1878 25.6274 11.0608 25.3228 11.2259C25.0182 11.391 24.8987 11.7846 25.048 12.1084C25.2093 12.4321 25.5796 12.5655 25.8902 12.4004Z" fill="#0033AD"/>
<path d="M22.0671 12.9083C21.6311 13.1432 21.4519 13.7083 21.6729 14.1717C21.8939 14.6352 22.4255 14.8256 22.8615 14.5907C23.2975 14.3558 23.4767 13.7908 23.2557 13.3273C23.0347 12.8639 22.5031 12.6798 22.0671 12.9083Z" fill="#0033AD"/>
<path d="M17.1399 7.32145C17.4804 7.3405 17.773 7.06116 17.7969 6.69928C17.8208 6.33741 17.552 6.02633 17.2116 6.00093C16.8711 5.98189 16.5785 6.25488 16.5546 6.61675C16.5367 6.98497 16.7995 7.29606 17.1399 7.32145Z" fill="#0033AD"/>
<path d="M17.1337 11.4672C17.6234 11.4989 18.0415 11.099 18.0654 10.5784C18.0953 10.0578 17.719 9.6134 17.2292 9.588C16.7395 9.55626 16.3214 9.95622 16.2975 10.4768C16.2736 10.9974 16.6439 11.4418 17.1337 11.4672Z" fill="#0033AD"/>
<path d="M12.3317 21.0917C12.7677 20.8568 12.9469 20.2918 12.7259 19.8284C12.5049 19.3649 11.9734 19.1744 11.5373 19.4093C11.1013 19.6442 10.9221 20.2093 11.1431 20.6727C11.3641 21.1362 11.8957 21.3266 12.3317 21.0917Z" fill="#0033AD"/>
<path d="M17.7073 12.8448C17.2534 13.5876 17.4445 14.578 18.1434 15.0605C18.8422 15.543 19.7739 15.3399 20.2279 14.5971C20.6818 13.8543 20.4907 12.8639 19.7919 12.3814C19.547 12.21 19.2603 12.1211 18.9676 12.1211C18.4599 12.1211 17.9881 12.3941 17.7073 12.8448Z" fill="#0033AD"/>
<path d="M20.329 19.549C19.9528 18.7554 19.0449 18.438 18.3043 18.838C17.5576 19.2379 17.259 20.2029 17.6353 20.9902C18.0116 21.7838 18.9195 22.1012 19.6601 21.7012C20.4007 21.3076 20.7053 20.3553 20.335 19.5617C20.335 19.5554 20.335 19.5554 20.329 19.549Z" fill="#0033AD"/>
<path d="M22.9633 19.4347C22.5512 19.149 22.0017 19.2697 21.7389 19.7077C21.4701 20.1458 21.5836 20.7299 21.9957 21.0092C22.4078 21.2949 22.9573 21.1743 23.2201 20.7362C23.4889 20.3045 23.3754 19.7204 22.9633 19.4347Z" fill="#0033AD"/>
<path d="M25.8541 17.0286C25.878 16.5842 25.5614 16.2097 25.1433 16.1843C24.7252 16.1589 24.3728 16.4953 24.3489 16.9398C24.325 17.3842 24.6416 17.7587 25.0597 17.7841C25.4718 17.8095 25.8302 17.4667 25.8541 17.0286Z" fill="#0033AD"/>
<path d="M27.939 16.4572C27.6702 16.4381 27.4373 16.6603 27.4253 16.946C27.4134 17.2317 27.6164 17.4793 27.8852 17.492C28.154 17.5111 28.381 17.2889 28.3989 17.0032C28.4108 16.7175 28.2077 16.4762 27.939 16.4572Z" fill="#0033AD"/>
<path d="M25.9736 21.5996C25.6869 21.4028 25.3046 21.4853 25.1135 21.7901C24.9284 22.0948 25.006 22.5011 25.2927 22.7043C25.5794 22.9011 25.9616 22.8185 26.1528 22.5138C26.3439 22.2091 26.2603 21.7964 25.9736 21.5996Z" fill="#0033AD"/>
<path d="M12.1284 26.4373C11.9015 26.2786 11.6028 26.3484 11.4535 26.5833C11.3042 26.8245 11.3699 27.142 11.5909 27.3007C11.8179 27.4594 12.1165 27.3896 12.2658 27.1547C12.4211 26.9198 12.3554 26.596 12.1284 26.4373Z" fill="#0033AD"/>
<path d="M22.3543 26.3865C22.1154 26.5135 22.0199 26.8309 22.1393 27.0849C22.2588 27.3388 22.5574 27.4404 22.7963 27.3134C23.0352 27.1864 23.1308 26.8754 23.0113 26.6214C22.8919 26.3611 22.5992 26.2532 22.3543 26.3865C22.3543 26.3865 22.3603 26.3865 22.3543 26.3865Z" fill="#0033AD"/>
<path d="M16.6921 21.1552C17.146 20.4124 16.9549 19.422 16.256 18.9331C15.5572 18.4506 14.6255 18.6538 14.1656 19.3966C13.7056 20.1394 13.9027 21.1298 14.6016 21.6186C14.8465 21.7901 15.1332 21.8789 15.4258 21.8789C15.9395 21.8853 16.4113 21.6123 16.6921 21.1552Z" fill="#0033AD"/>
<path d="M13.6757 23.6122C13.3293 23.3709 12.8574 23.4725 12.6304 23.8407C12.4035 24.209 12.499 24.7105 12.8455 24.9517C13.1919 25.193 13.6637 25.0914 13.8907 24.7232C14.1236 24.355 14.0281 23.8534 13.6757 23.6122Z" fill="#0033AD"/>
<path d="M17.1936 26.6786C16.8532 26.6595 16.5605 26.9389 16.5366 27.3008C16.5127 27.6626 16.7815 27.9737 17.122 27.9991C17.4624 28.0181 17.7551 27.7452 17.779 27.3833C17.7969 27.0151 17.5341 26.704 17.1936 26.6786Z" fill="#0033AD"/>
<path d="M17.1995 22.5329C16.7098 22.5011 16.2917 22.9011 16.2678 23.4217C16.2379 23.9423 16.6142 24.3867 17.104 24.4121C17.5937 24.4375 18.0118 24.0439 18.0357 23.5233C18.0656 23.009 17.6893 22.5583 17.1995 22.5329Z" fill="#0033AD"/>
<path d="M20.8249 23.5487C20.4546 23.7518 20.3053 24.2343 20.4964 24.6279C20.6876 25.0216 21.1415 25.1803 21.5118 24.9771C21.8821 24.7803 22.0314 24.2978 21.8463 23.9042C21.6551 23.5106 21.2012 23.3455 20.8249 23.5487Z" fill="#0033AD"/>
</svg>
