<svg width="32" height="32" viewBox="0 0 32 32" fill="none" xmlns="http://www.w3.org/2000/svg">
<path d="M16 32C24.8366 32 32 24.8366 32 16C32 7.16344 24.8366 0 16 0C7.16344 0 0 7.16344 0 16C0 24.8366 7.16344 32 16 32Z" fill="#988430"/>
<path d="M15.9999 31.4875C24.5534 31.4875 31.4874 24.5535 31.4874 16C31.4874 7.4465 24.5534 0.512512 15.9999 0.512512C7.44643 0.512512 0.512451 7.4465 0.512451 16C0.512451 24.5535 7.44643 31.4875 15.9999 31.4875Z" fill="#7A6A2A"/>
<path d="M16 31.1612C24.3733 31.1612 31.1612 24.3733 31.1612 16C31.1612 7.62672 24.3733 0.838837 16 0.838837C7.62675 0.838837 0.838867 7.62672 0.838867 16C0.838867 24.3733 7.62675 31.1612 16 31.1612Z" fill="#BA9F33"/>
<path fill-rule="evenodd" clip-rule="evenodd" d="M6.99537 14.2913C6.90474 14.2085 6.809 14.1256 6.72093 14.0428C6.63287 13.96 6.54242 13.8771 6.45179 13.7943L6.18248 13.5383C6.13845 13.4943 6.09186 13.4555 6.04782 13.4113C6.00379 13.3726 5.95208 13.3286 5.90805 13.2896C5.55067 12.9505 5.19125 12.6114 4.83882 12.2721C5.20388 12.6061 5.56125 12.9377 5.92631 13.2767L6.05311 13.4036C6.09715 13.4475 6.14374 13.4864 6.18777 13.5305L6.45691 13.7789C6.54754 13.8617 6.6356 13.9447 6.72622 14.0349C6.81685 14.1252 6.90491 14.2083 6.99554 14.2909L6.99537 14.2913ZM2.25237 14.2401C2.25237 14.2401 3.55199 14.3746 4.18636 14.4652C4.77397 14.5481 6.61222 14.8302 6.61222 14.8302L2.25237 14.2401ZM2.25237 14.2401C2.61742 14.2711 2.98248 14.3099 3.34754 14.3488C3.5339 14.3669 3.71259 14.3875 3.89128 14.4056L4.16554 14.4369C4.25617 14.4497 4.34423 14.4626 4.43485 14.4756L5.52234 14.649L6.06591 14.7396C6.2446 14.7707 6.42329 14.8045 6.60966 14.8355C6.43097 14.8174 6.2446 14.7915 6.06591 14.7656L5.52234 14.6879L4.43485 14.5275C4.34423 14.5145 4.25617 14.4963 4.16554 14.4835L3.89111 14.4519C3.71242 14.4338 3.52605 14.4078 3.34737 14.387C2.98231 14.3432 2.61725 14.2964 2.2522 14.2396L2.25237 14.2401ZM6.48285 15.1689C6.48285 15.1689 5.09516 15.5211 4.62651 15.6558C4.16571 15.7826 2.77017 16.2072 2.77017 16.2072L6.48268 15.169L6.48285 15.1689Z" fill="#CFB66C"/>
<path fill-rule="evenodd" clip-rule="evenodd" d="M6.48286 15.1689C6.17481 15.2595 5.86846 15.3475 5.55597 15.4305L4.62908 15.679C4.32103 15.7696 4.01468 15.8577 3.70748 15.9483L3.24668 16.0751C3.09394 16.1191 2.93863 16.1579 2.78076 16.2021C2.93334 16.1509 3.08882 16.0985 3.24156 16.0544L3.70236 15.907C4.01042 15.8111 4.31676 15.7205 4.62396 15.6247C4.93714 15.5471 5.24536 15.4641 5.55853 15.389C5.85618 15.3139 6.16952 15.239 6.48286 15.169V15.1689ZM2.96457 17.0616C3.11715 17.0046 4.87774 16.184 5.28683 15.9923C5.49163 15.8964 6.08692 15.6851 6.08692 15.6851L2.96457 17.0616Z" fill="#CFB66C"/>
<path fill-rule="evenodd" clip-rule="evenodd" d="M2.96453 17.0615C3.09901 17.0103 3.22599 16.9477 3.35535 16.8882L3.7385 16.7095L4.50752 16.3393C4.76352 16.2176 5.01236 16.0833 5.27638 15.9689C5.41103 15.9121 5.54569 15.8655 5.68017 15.8215L5.88497 15.7568C5.95478 15.7387 6.01963 15.7179 6.08977 15.6998C5.83377 15.8215 5.56429 15.9251 5.30795 16.044C5.05195 16.171 4.79015 16.2746 4.52596 16.3884L3.74413 16.7327C3.48165 16.839 3.22565 16.9528 2.96436 17.0615H2.96453ZM3.13519 17.7783C3.13519 17.7783 4.7299 16.8438 5.27877 16.5434C5.56617 16.383 6.49562 15.922 6.49562 15.922L3.13519 17.7783Z" fill="#CFB66C"/>
<path fill-rule="evenodd" clip-rule="evenodd" d="M3.13525 17.7787C3.4044 17.613 3.67883 17.4447 3.95326 17.2739L4.36286 17.0252C4.50264 16.9424 4.63729 16.8648 4.7798 16.782C4.91957 16.6991 5.05423 16.6163 5.19657 16.5386C5.26432 16.4968 5.33532 16.4604 5.40888 16.4299L5.6263 16.3212C5.91371 16.1814 6.20111 16.0389 6.50404 15.9172C6.22961 16.0908 5.94733 16.2384 5.66522 16.391C5.52544 16.4687 5.38293 16.5386 5.24316 16.6163C5.10338 16.6939 4.96873 16.7769 4.82622 16.852C4.68644 16.9348 4.55179 17.0124 4.40945 17.0875L3.98739 17.3179L3.1356 17.7787H3.13525ZM6.48271 16.1268C6.48271 16.1268 5.49114 16.888 5.17011 17.1314C4.84909 17.3747 3.90411 18.0582 3.90411 18.0582L6.48271 16.1268V16.1268Z" fill="#CFB66C"/>
<path fill-rule="evenodd" clip-rule="evenodd" d="M12.1734 22.2653L11.666 21.3048L11.9611 20.1035L14.0659 19.2906L13.1701 17.4525L13.6128 15.5962L14.444 13.9339L17.0123 13.5301L18.8996 11.7308L22.9747 12.0388L23.7746 16.3961L22.2342 21.8822L21.3566 24.7224L17.7993 24.8571L16.1476 23.7128L14.2136 22.9048L12.1734 22.2653Z" fill="#E2CC85"/>
<path fill-rule="evenodd" clip-rule="evenodd" d="M18.413 22.2343C18.413 22.2343 17.921 22.4596 17.0818 22.4077C16.839 22.0815 15.1381 21.9288 15.1381 21.9288C15.1381 21.9288 14.9258 21.8641 14.5503 22.0194C14.1725 22.173 13.8151 22.1541 13.4811 22.2368C13.1471 22.3196 12.8155 21.8847 12.5595 21.7941C12.3035 21.6984 11.964 21.468 11.964 21.468L11.2472 21.398L9.80783 20.7896L7.52106 18.5114L6.89967 19.4842L6.70801 20.688L7.39938 22.1146L9.26084 23.8104L12.8906 24.732L15.042 24.0981L17.7372 22.9589L18.413 22.2341V22.2343Z" fill="#F1D789"/>
<path fill-rule="evenodd" clip-rule="evenodd" d="M5.51706 14.1826L5.97786 12.7872L6.5269 11.8861L8.295 11.7385L7.76423 13.2868L6.28609 15.9172L6.89963 18.2654L5.81232 18.809L5.47815 18.2965L5.20901 17.1211L5.19092 15.8007L5.51706 14.1826Z" fill="#F4ECB4"/>
<path fill-rule="evenodd" clip-rule="evenodd" d="M7.50025 22.1385L7.16114 21.6648C7.16114 21.6648 7.07051 21.4395 7.1224 21.2427C7.1736 21.0434 7.16626 21.0304 7.14049 20.9553C7.11472 20.8802 6.89712 20.6213 6.91009 20.3986C6.92289 20.1733 6.892 20.0982 7.05754 19.9197C7.23094 19.7463 7.17923 19.4459 7.17923 19.4459L7.40451 19.5857L7.45571 19.5081C7.45571 19.5081 7.53848 19.5727 7.53848 19.6738C7.55657 19.534 7.48148 18.8867 7.65232 18.7392C7.82316 18.5917 8.12609 19.4304 8.12609 19.4304L7.93972 18.2136L7.46066 16.9658L6.60886 15.8266L6.55766 14.5708V14.4621C6.55766 14.4621 6.16666 15.0629 6.05795 15.5373C5.98029 15.8635 6.16666 16.2596 6.12792 16.7282C6.09669 17.1943 6.05795 17.158 6.17178 17.3426C6.28562 17.5273 6.56278 17.907 6.45407 18.1815C6.35832 18.4172 6.03201 18.2514 6.03201 18.2514C6.03201 18.2514 5.96732 18.4429 5.87926 18.5129C5.8482 18.3991 5.81458 18.3265 5.75245 18.2569C5.74716 18.3009 5.73436 18.3605 5.73436 18.3605C5.73436 18.3605 5.67736 18.1818 5.62036 17.9565C5.54288 17.6563 5.45993 17.2602 5.38484 17.0479C5.35378 17.1696 5.27612 17.5398 5.27612 17.5398L5.32016 18.1094L5.53246 18.8913L5.73727 19.4033L5.9366 20.0298L6.10983 20.4507L6.24961 20.7717L6.37129 21.4941L6.9589 22.1153L7.27224 22.2553L7.49991 22.1387L7.50025 22.1385Z" fill="#F3E19D"/>
<path fill-rule="evenodd" clip-rule="evenodd" d="M5.8251 13.0434C5.8251 13.0434 5.40304 13.7602 5.28153 14.4828C5.16001 15.2054 5.05113 15.9689 5.12793 16.9527C5.20558 17.9444 5.35321 18.5527 5.47233 18.9877C5.67713 19.7101 6.20756 20.7147 6.20756 20.7147L6.22565 20.6758C6.1365 20.5068 6.06534 20.3289 6.01334 20.145C5.94337 19.8706 5.91743 19.5444 5.85275 19.3968C5.79574 19.2493 5.7 19.1224 5.65341 18.9411C5.60938 18.7677 5.60221 18.4933 5.46704 18.2888C5.41004 18.2059 5.34006 17.9884 5.31941 17.771C5.29347 17.4447 5.33238 17.0796 5.30132 16.7794C5.24432 16.2797 5.20558 15.9406 5.25729 15.679C5.309 15.4174 5.57849 14.6746 5.7442 14.0843C5.85292 13.7062 5.78806 13.3878 5.9874 13.0589C6.18674 12.7328 6.3086 12.4454 6.35246 12.246C6.40366 12.0648 5.82442 13.0434 5.82442 13.0434H5.8251Z" fill="#F2E8B0"/>
<path fill-rule="evenodd" clip-rule="evenodd" d="M7.82654 12.756C7.82654 12.756 7.60911 12.8208 7.50551 12.9347C7.40192 13.0434 7.35789 13.134 7.21811 13.3178C7.07834 13.5016 7.07048 13.6518 6.95648 13.8822C6.84264 14.1075 6.59142 14.4466 6.56036 14.5683C6.5293 14.69 6.47759 15.2595 6.41291 15.5288C6.3559 15.7981 6.47759 16.1295 6.47759 16.1295L6.62504 16.0983C6.62504 16.0983 6.62504 16.29 6.77267 16.4195C6.92013 16.5463 6.94607 15.9896 6.94607 15.9896L7.49749 14.1281L8.32847 13.5637L8.41909 13.1081L7.8262 12.756H7.82654Z" fill="#F5EEC0"/>
<path fill-rule="evenodd" clip-rule="evenodd" d="M8.23037 13.6001C8.23037 13.6001 7.83937 13.6258 7.64788 13.7658C7.57023 13.8226 7.53917 13.8692 7.45639 13.9392C7.30365 14.066 7.14817 14.1826 7.07325 14.3488C6.9903 14.5143 6.89968 14.7656 6.83756 15.2393C6.81162 15.4387 6.81162 15.6225 6.79353 15.7831C6.76758 16.0005 6.72884 16.1739 6.74949 16.2951C6.77544 16.5436 7.03178 16.6731 7.05669 16.9552L7.58747 16.6861L8.08718 14.7157L9.14873 14.0501L8.54798 13.377L8.22969 13.5989L8.23037 13.6001Z" fill="#E6DB9D"/>
<path fill-rule="evenodd" clip-rule="evenodd" d="M5.43035 26.8679C5.43256 26.8484 5.43478 26.829 5.437 26.809C5.51449 26.1434 5.52763 25.6389 5.58446 25.323C5.66723 24.8752 5.72423 24.7086 5.71126 24.541C5.69317 24.2719 5.67252 24.0751 5.69846 23.8679C5.73721 23.5935 6.00652 23.2673 5.99884 23.0421C5.99355 22.8634 5.90292 22.747 5.82527 22.6383C5.74762 22.5295 5.68549 22.4389 5.68549 22.4389C5.68549 22.4389 6.21627 22.0739 6.21115 20.6032C6.22199 20.6063 6.23241 20.6106 6.24221 20.6162L6.50367 21.3591L6.68236 21.5765L7.36844 22.8555L8.2513 23.7126L9.55604 24.5902L10.3742 25.4805L10.457 27.8547L9.38777 29.2424L9.21266 29.5595C7.82151 28.8611 6.54582 27.9533 5.43018 26.8677L5.43035 26.8679Z" fill="#E5CB7A"/>
<path fill-rule="evenodd" clip-rule="evenodd" d="M8.69653 29.1391C8.69653 29.1391 8.71462 28.844 8.95799 28.6524C8.99691 28.7171 9.02268 28.7794 9.015 28.8258C9.05903 28.7483 9.36708 28.2511 10.0636 28.1216C10.7601 27.9948 10.9283 27.4874 10.9283 27.4874L12.4065 26.1437L14.0971 24.5878L16.1528 23.8653L17.1135 23.6297C17.1135 23.6297 17.1316 23.6996 17.0954 23.8549C17.2739 23.8421 17.67 23.7515 18.0817 23.6064C18.2474 23.5418 18.4029 23.5158 18.4856 23.6013C18.6073 23.7152 18.6254 23.9845 18.6331 24.1449C18.8324 24.1009 19.0628 23.9094 19.2475 23.9275C19.5427 23.9585 19.8042 24.3055 20.1046 24.3055C20.5007 24.3055 20.6792 24.0621 20.9564 23.8705C21.1221 23.7566 21.3602 23.6145 21.4948 23.5184C21.8158 23.2827 25.2126 22.2445 25.2126 22.2445L26.4035 22.3222L26.5952 23.6012L26.4928 26.9445C26.4802 26.9566 26.4675 26.9693 26.4547 26.9814L21.0398 29.8095L13.5339 30.9601C11.8526 30.6854 10.23 30.1273 8.73545 29.3096L8.69705 29.1389L8.69653 29.1391Z" fill="#D8C173"/>
<path fill-rule="evenodd" clip-rule="evenodd" d="M5.8855 27.2932C5.99216 27.0701 6.08808 26.8836 6.10498 26.8168C6.11829 26.9513 6.14269 27.2464 6.19184 27.5601C6.08865 27.4724 5.98653 27.3833 5.8855 27.293V27.2932Z" fill="#F1D789"/>
<path fill-rule="evenodd" clip-rule="evenodd" d="M11.3684 30.4396L12.3391 30.1696L12.4219 30.1955C12.4219 30.1955 12.4659 30.2215 12.4659 30.3094C12.5876 30.2396 12.6912 30.2524 12.7663 30.206C12.8051 30.2887 12.8438 30.5632 13.0148 30.5968C13.1933 30.6357 13.385 30.5191 13.5792 30.3717C13.7707 30.2189 13.9888 30.0273 14.1538 29.9496C14.2144 30.061 14.268 30.1759 14.3144 30.2939C14.5319 30.1205 14.9099 29.4163 15.4483 29.4291C15.604 29.0613 15.864 28.7472 16.1962 28.5256C16.6959 28.1865 17.0091 28.1605 17.4001 28.1916C17.5554 27.9898 17.7467 27.8187 17.9645 27.6867C18.0292 27.7127 18.2079 27.8214 18.4306 27.7178C18.6559 27.6144 18.9095 27.213 19.2435 27.1613C19.4234 27.1365 19.6064 27.1749 19.7613 27.27C19.7613 27.27 20.7341 26.3042 21.4053 25.9832C21.3793 25.9055 21.3276 25.613 22.1146 24.9656C22.1586 25.0045 22.1276 25.1133 22.1586 25.1192C22.1714 25.1192 22.3634 25.0365 22.6064 24.8499C22.9068 24.6248 23.2666 24.3891 23.484 24.3244C23.8936 24.2028 24.3281 24.4512 24.3281 24.4512C24.3651 24.4253 24.4063 24.406 24.4498 24.3942C24.5532 24.3762 24.6283 24.3632 24.6853 24.343C24.6802 24.4777 24.7553 24.7081 24.6853 24.9074C24.7664 24.953 24.8522 24.9895 24.9413 25.0162C24.8975 25.1119 24.8016 25.3553 24.6411 25.4718C24.7756 25.5365 24.7937 25.6116 24.9854 25.6766C24.9077 25.7853 24.7806 25.9719 24.7239 26.0862C24.6669 26.2079 24.4623 26.7128 24.3716 26.9042C24.2759 27.0959 24.1465 27.448 24.0842 27.5186C24.022 27.5893 23.7968 27.8888 23.6234 28.0363C23.777 27.9793 24.4054 27.7878 24.672 27.7152C24.5927 27.8316 24.1904 28.4285 23.8037 29.0024C21.952 30.1122 19.8851 30.8147 17.7406 31.063C15.5962 31.3112 13.4234 31.0996 11.3672 30.4422L11.3684 30.4396Z" fill="#E0CD81"/>
<path fill-rule="evenodd" clip-rule="evenodd" d="M8.29448 13.5301C8.29448 13.5301 8.06937 13.5301 8.02534 13.5612C7.98131 13.5922 8.25062 13.6571 8.33339 13.6881C8.41616 13.7192 8.59485 13.8615 8.64144 13.9755C8.68548 14.0843 10.2595 14.7185 10.2595 14.7185L11.3728 14.6615L11.7566 14.1312L11.0265 13.4917L11.5385 11.9823L10.8603 12.091L9.22922 13.0638L8.41104 13.3772L8.29448 13.5301Z" fill="#DFC57C"/>
<path fill-rule="evenodd" clip-rule="evenodd" d="M10.7393 14.0298C10.7553 14.0559 10.778 14.0772 10.805 14.0918C10.8319 14.1063 10.8622 14.1135 10.8929 14.1126C11.1233 14.1126 11.3354 14.1696 11.4235 14.286C11.5711 14.4725 11.9802 15.068 11.9802 15.068L12.9588 15.4201L13.0219 14.2677L11.9527 13.5248L10.7358 13.9726V14.0296H10.7386L10.7393 14.0298Z" fill="#E5CC7C"/>
<path fill-rule="evenodd" clip-rule="evenodd" d="M10.5471 14.457C10.5471 14.457 10.7257 14.47 10.9509 14.387C11.1762 14.3041 11.5464 14.1256 11.707 14.1955C11.9321 14.2913 11.8855 14.5917 12.1291 14.8611C12.2765 15.0269 12.5458 15.0217 12.6986 15.2004C12.8513 15.3791 13.3768 15.2962 13.3768 15.2962L13.5761 16.3714L12.7762 17.3967L12.5146 18.6704H11.4329L10.4447 18.2784L9.95801 17.1008L10.2014 15.9099L10.5471 14.457Z" fill="#D2C281"/>
<path fill-rule="evenodd" clip-rule="evenodd" d="M12.6397 14.5087C12.6665 14.517 12.6944 14.5214 12.7224 14.5217C12.6914 14.5476 12.6265 14.6045 12.6525 14.7521C12.6784 14.8997 12.7612 15.0861 12.6914 15.1999C12.7471 15.2609 12.7886 15.3334 12.8131 15.4122C12.8571 15.5392 12.8701 15.6556 13.1573 15.6739C13.1158 15.6994 13.0776 15.7298 13.0435 15.7645C13.0435 15.7645 13.2428 15.9379 13.3438 16.0983C13.4473 16.0939 13.7217 16.0085 13.7217 16.0085L13.7787 16.0475L13.9004 15.9963C13.9004 15.9963 13.7865 15.9522 13.8693 15.6752C13.947 15.4319 14.0169 15.4448 14.0229 15.4267C14.0289 15.4086 14.0799 15.1523 14.0799 15.0487C14.1187 14.9142 14.1497 14.5051 14.1497 14.5051L14.0669 13.6016L13.601 13.3194L13.2221 12.9536L12.8648 13.6267L12.6294 13.8614L12.6113 14.4439L12.6397 14.5087Z" fill="#E2C270"/>
<path fill-rule="evenodd" clip-rule="evenodd" d="M13.7605 13.7528C13.7605 13.7528 13.8433 13.9884 13.8745 14.1696C13.8855 14.1344 13.8916 14.0978 13.8926 14.0609C13.8926 14.0609 13.9573 14.4183 13.9701 14.5659C13.996 14.5606 14.0213 14.5529 14.0271 14.5787C14.0329 14.6045 14.0919 14.892 14.0783 15.0525C14.1861 14.8746 14.3353 14.7254 14.5131 14.6176C14.6167 14.5528 14.7384 14.483 14.8654 14.4777C15.0647 14.4725 15.2096 14.6046 15.4479 14.6046C16.0225 14.6046 16.543 14.1826 16.9262 14.0532C17.2083 13.9573 17.4517 13.8875 17.6225 13.732C17.7055 13.6622 17.8531 13.5069 17.9876 13.2763C18.1663 12.9691 18.3526 12.7017 18.5392 12.6681C18.4548 12.6836 18.3689 12.6897 18.2832 12.6862C18.2832 12.6862 18.3402 12.6292 18.4368 12.5515C18.5334 12.4739 18.6491 12.3781 18.8146 12.3781C19.1099 12.3781 19.2573 12.422 19.423 12.422C19.5888 12.4169 19.6845 12.3781 19.6845 12.3781C19.6845 12.3781 19.8581 12.4998 20.2489 12.4998C20.6399 12.5049 20.9014 12.5385 21.106 12.5568C21.3106 12.5751 21.9965 12.4998 22.1933 12.5056C22.3216 12.5106 22.4476 12.5414 22.5637 12.5962L21.9293 10.753L19.6505 8.76135L18.2939 9.72187L16.207 11.8086L14.1877 12.5568L13.7656 13.0306V13.7528H13.7605Z" fill="#CCB360"/>
<path fill-rule="evenodd" clip-rule="evenodd" d="M18.2913 12.6964C18.2913 12.6964 18.3483 12.6396 18.4439 12.5619C18.5395 12.4843 18.6564 12.3883 18.8219 12.3883C19.117 12.3883 19.2647 12.4324 19.4304 12.4324C19.5961 12.4272 19.6918 12.3883 19.6918 12.3883C19.6918 12.3883 19.8656 12.5099 20.2562 12.5099C20.6472 12.515 20.9087 12.5486 21.1133 12.5667C21.318 12.5848 22.0039 12.5099 22.2006 12.5155C22.3289 12.5203 22.4548 12.5511 22.5708 12.6061L22.2834 11.775L21.9496 11.1408L20.9968 10.0973C20.9968 10.0973 19.8533 9.4242 19.8446 9.41908C19.8395 9.41396 19.4485 9.31036 19.4485 9.31036L18.4129 9.93688L17.4732 12.368L17.4551 12.88L18.0633 13.1674C18.2161 12.9114 18.3845 12.7066 18.5424 12.6807C18.3999 12.6962 18.2912 12.6962 18.2912 12.6962L18.2913 12.6964Z" fill="#D5B457"/>
<path fill-rule="evenodd" clip-rule="evenodd" d="M18.2784 12.87C18.1877 12.8751 18.1128 12.857 18.092 12.7923C18.0143 12.5749 17.9522 12.5438 17.8872 12.5438C17.8222 12.5438 17.7345 12.6836 17.6824 12.6964C17.6303 12.7092 17.5686 12.536 17.5686 12.536L17.5116 12.51C17.5116 12.51 17.1776 12.7275 16.942 12.9838C16.7065 13.2402 16.3207 13.6752 16.1473 13.7527C15.9739 13.8301 15.3782 13.8563 15.1745 13.9003C14.9707 13.9443 14.7447 14.0919 14.7137 14.1256C14.6826 14.1592 14.8045 14.1954 14.8225 14.229C14.8406 14.2601 14.623 14.2471 14.6049 14.2802C14.5921 14.3061 14.6561 14.4536 14.6879 14.5287C14.7434 14.5011 14.8044 14.486 14.8664 14.4847C15.0657 14.4795 15.2108 14.6116 15.4489 14.6116C16.0237 14.6116 16.5441 14.1896 16.9272 14.06C17.2095 13.9643 17.4529 13.8943 17.6237 13.739C17.7065 13.6692 17.8541 13.5137 17.9887 13.2833C18.0871 13.1255 18.183 12.9778 18.2789 12.8691L18.2784 12.87Z" fill="#D2B257"/>
<path fill-rule="evenodd" clip-rule="evenodd" d="M10.0352 25.683C10.0352 25.683 9.984 25.4913 9.50955 24.9969C9.3749 24.8571 9.29212 24.7409 9.2015 24.6578C8.97622 24.4453 8.84412 24.3884 8.6837 24.2668C8.33161 24.0053 7.94846 24.0053 7.65338 23.6843C7.3583 23.3632 7.0144 22.7499 6.77547 22.123C6.53995 21.4965 6.4751 21.2972 6.4751 21.2791C6.4751 21.261 6.53995 21.1393 6.62272 21.1574C6.7055 21.1755 6.7055 21.3359 6.72632 21.3748C6.76756 21.4383 6.81433 21.4981 6.8661 21.5533C6.98778 21.6933 7.16118 21.8605 7.24924 22.11C7.23115 21.8977 7.15862 21.6622 7.15862 21.6622C7.15862 21.6622 7.6143 21.9496 8.00256 22.2498C8.39356 22.5502 8.55399 22.6538 8.66816 22.8453C8.78234 23.0368 9.05131 23.5418 9.18016 23.6894C9.30902 23.837 11.0746 24.3936 11.0746 24.3936L11.9144 25.0197L12.3314 25.9337L12.005 26.4457L11.3785 26.5803L10.361 26.1246L10.0352 25.6828V25.683Z" fill="#D2B159"/>
<path fill-rule="evenodd" clip-rule="evenodd" d="M7.77466 22.5347C7.77466 22.5347 7.98697 22.8738 8.50477 23.1948C8.97086 23.4771 9.70865 23.7334 10.3664 23.8862C10.7443 23.9768 11.1223 24.0466 11.4614 24.0519C12.3753 24.0647 13.0044 23.8034 13.7838 23.7179C14.2059 23.6739 14.7237 23.6402 15.2621 23.5131C15.9533 23.3474 16.3624 23.1608 16.9191 22.8987C17.3229 22.7123 17.6933 22.5725 17.9935 22.3939C18.4156 22.1454 18.7236 21.8684 19.081 21.7856C19.037 21.9073 18.9904 22.1247 18.6383 22.35C18.8246 22.3447 19.081 22.3319 19.081 22.3319C19.081 22.3319 18.8325 22.4794 18.3949 22.8108C18.1256 23.0156 17.7684 23.3622 17.4033 23.5926C17.1676 23.7402 16.9113 23.8486 16.743 23.937C16.3334 24.1623 16.1682 24.2761 15.8991 24.5514C15.9948 24.5463 16.0027 24.5514 16.0027 24.5514C16.0027 24.5514 15.6634 24.5955 15.4202 24.7248C15.369 24.7248 15.2802 24.7067 15.1249 24.7508C15.0032 24.7895 14.8426 24.8777 14.6771 24.9242C14.4414 24.9941 14.3639 24.9631 14.3639 24.9631L14.4027 25.0407C14.4027 25.0407 14.0955 25.0354 13.9931 25.0458C14.0112 25.051 14.006 25.0588 14.006 25.0588C13.9881 25.0618 13.9707 25.068 13.9548 25.0769C13.9056 25.1088 13.8514 25.1324 13.7944 25.1467C13.7634 25.1518 13.7374 25.1518 13.6985 25.1597C13.7115 25.1907 13.8125 25.3645 13.8591 25.4669C13.8204 25.4928 13.2377 25.933 13.2377 25.933C13.2558 25.9614 13.2705 25.9918 13.2817 26.0236C13.2998 26.0804 13.3077 26.1634 13.3258 26.2021C13.3696 26.2798 13.3956 26.2927 13.3956 26.2927C13.3956 26.2927 13.3258 26.3057 13.2039 26.3368C13.1005 26.3627 12.9735 26.4066 12.7943 26.4325C12.7393 26.4397 12.684 26.444 12.6286 26.4455C12.6545 26.5025 12.7684 26.7199 12.5586 26.971C12.3489 27.222 12.2842 27.2585 12.2195 27.419C12.1869 27.3943 12.1523 27.3726 12.1159 27.3541C12.0461 27.323 11.9502 27.2766 11.9166 27.2143C11.897 27.2973 11.871 27.3787 11.8389 27.4577C11.7742 27.6311 11.6785 27.8021 11.6604 27.9315C11.5904 27.8538 11.4611 27.7011 11.2824 27.7321C11.1037 27.7632 10.9613 28.0066 10.9303 28.0765C10.9303 28.0325 10.8992 27.9989 10.8915 28.0506C10.8863 28.1076 10.7879 28.7029 10.2391 29.1845C10.234 29.0628 10.234 28.7935 10.221 28.7056C10.1698 28.7568 10.1072 28.8324 9.73425 28.993C9.3692 29.1535 9.42705 29.314 9.42705 29.314C9.42705 29.314 9.39599 29.058 9.59277 28.7884C9.79211 28.5193 9.91379 28.3923 9.91379 28.3716C9.91058 28.3506 9.9016 28.3309 9.88785 28.3146C9.86191 28.2887 9.8102 28.2576 9.8102 28.237C9.84126 28.2242 10.1493 28.0765 10.1312 27.7709C10.1131 27.4966 9.99674 27.3541 9.91379 27.2532C9.90099 27.2403 10.0357 27.1445 10.0174 27.1135C10.0044 27.0954 9.83887 26.9735 9.81805 26.9087C9.82294 26.87 9.83163 26.8318 9.84399 26.7948C9.86208 26.7378 9.87505 26.6989 9.86993 26.6602C9.85696 26.5955 9.78699 26.4168 9.76634 26.3987C9.78443 26.4038 9.91379 26.3987 9.91379 26.3987C9.91379 26.3987 9.81037 26.233 9.79211 26.1553C9.77385 26.0777 9.73511 25.8731 9.71446 25.8343C9.75849 25.8394 9.8672 25.8471 9.8672 25.8343C9.87249 25.7954 9.77146 25.7307 9.816 25.6807C9.84706 25.6858 9.90663 25.7118 9.96346 25.7843C9.9324 25.7014 9.88069 25.5409 9.7718 25.4763C9.823 25.4582 9.99708 25.4114 10.1498 25.502C10.3026 25.5927 10.3546 25.7195 10.3546 25.7195C10.3546 25.7195 10.4453 25.7894 10.5852 25.893C10.7456 26.0198 10.9501 26.2002 11.2764 26.3279C11.3464 26.3668 11.5249 26.3668 11.6544 26.3409C11.7108 26.3274 11.7649 26.3056 11.8149 26.2762C11.8329 26.2656 11.852 26.2569 11.8719 26.2502C11.844 26.1944 11.812 26.1407 11.7761 26.0896C11.8201 26.0896 11.8719 26.0949 11.8719 26.0949C11.8719 26.0949 11.9029 26.025 11.7631 25.8901C11.7942 25.8591 11.8331 25.8389 11.8331 25.7865C11.7891 25.7814 11.7114 25.7167 11.6933 25.6908C11.7191 25.6727 11.758 25.6131 11.8021 25.595C11.7631 25.564 11.6674 25.4345 11.6234 25.4217C11.6654 25.406 11.7061 25.387 11.745 25.3646C11.745 25.3646 11.5276 25.3076 11.4576 25.2611C11.3877 25.2099 11.2842 25.1213 11.2221 25.0953C11.1573 25.0694 11.0434 25.0566 10.9968 25.0047C11.0407 25.0177 11.1107 25.0047 11.1626 25.0047C11.2013 25.0047 11.2196 25.0098 11.2324 25.0098C11.2272 24.9917 11.2272 24.9528 11.3283 24.94C11.3769 24.9327 11.424 24.9178 11.4681 24.896C11.4681 24.896 11.3721 24.8909 11.2633 24.7873C11.1544 24.6837 11.0639 24.6009 11.0018 24.5879C10.9371 24.575 10.8154 24.632 10.7403 24.6267C10.6367 24.6139 10.5927 24.562 10.5927 24.562C10.5927 24.562 10.2485 24.5931 9.48474 24.1271C8.82443 23.7232 8.53703 23.366 8.53703 23.366C8.47523 23.3435 8.4155 23.3158 8.35851 23.283C8.11002 23.1537 7.76561 22.8844 7.77602 22.5321L7.77466 22.5347Z" fill="#C2A44D"/>
<path fill-rule="evenodd" clip-rule="evenodd" d="M17.2997 6.99545C17.3596 7.01491 17.4129 7.0508 17.4533 7.09905C17.575 7.23882 17.6527 7.50284 17.3757 7.78513C17.4844 7.82387 17.5293 7.83633 17.6242 7.82387C17.5284 7.93787 17.311 8.18124 17.298 8.39355C17.2851 8.56695 17.3938 8.61883 17.3938 8.61883C17.3938 8.61883 17.2281 8.81032 17.2204 9.13083C17.2986 9.04258 17.3843 8.96116 17.4764 8.88746C17.668 8.73472 17.9321 8.56132 18.1107 8.4526C18.1083 8.49817 18.1145 8.54378 18.1288 8.58709C18.1288 8.58709 18.4627 8.31266 18.7432 8.43451C18.87 8.49151 18.813 8.67003 18.813 8.67003C18.813 8.67003 18.9866 8.60535 19.1083 8.72704C19.23 8.84872 19.402 9.16258 19.4902 9.28426C19.529 9.34126 19.63 9.44998 19.7334 9.61826C19.8747 9.85385 19.9927 10.1027 20.0857 10.3612C20.0908 10.2265 20.1244 10.0169 20.5078 10.1489C20.8909 10.2835 21.3258 10.5658 21.6908 11.1217C22.0559 11.6775 22.1463 12.3051 22.3301 12.544C22.5165 12.7744 22.7082 13.1575 22.7211 13.3181C22.7341 13.4787 22.6641 13.9964 23.0473 15.397C23.156 14.9622 23.3217 13.9964 23.3217 13.9964L23.4123 13.1446L23.5159 10.509L20.7638 8.22254L18.6123 6.66129L17.2117 6.79594L17.2996 6.99528L17.2997 6.99545Z" fill="#CAA13E"/>
<path fill-rule="evenodd" clip-rule="evenodd" d="M22.413 10.9177C22.413 10.9177 22.3741 10.6617 21.7269 10.2265C21.0796 9.7968 20.5747 9.7968 20.1088 9.43174C19.7514 9.14434 19.3787 8.48403 19.136 8.2666C18.9003 8.05173 18.8616 7.43033 18.8616 7.43033L19.6564 6.76473L20.8384 5.05619L21.8377 3.9559L22.3165 4.6215L22.9821 5.40333L23.3523 6.97227L23.487 9.26876L22.4118 10.9179L22.413 10.9177Z" fill="#B59544"/>
<path fill-rule="evenodd" clip-rule="evenodd" d="M23.213 13.6704C23.2326 13.3221 23.1895 12.9732 23.086 12.6401C22.9153 12.1093 22.5424 11.1669 22.3692 10.8139C22.2992 10.4229 22.3511 10.3919 22.4262 10.3479C22.5013 10.3038 22.7836 10.1431 22.9382 9.579C23.0928 9.01494 23.5726 8.99651 23.5726 8.99651L23.8676 8.77908L24.3156 9.90002L24.7065 10.9124L24.8282 11.6866L24.9188 12.3467L24.7065 13.7422L23.6581 14.6898L23.2128 13.6704H23.213Z" fill="#C89D3A"/>
<path fill-rule="evenodd" clip-rule="evenodd" d="M8.58276 29.2248V29.1961C8.60455 29.1825 8.62378 29.1652 8.6396 29.1449C8.65769 29.119 8.67083 29.0879 8.68363 29.0802C8.70957 29.0673 8.83125 29.029 8.89594 29.0413C8.96062 29.0536 9.13163 29.1241 9.22225 29.119C9.40862 29.1138 9.62605 28.9713 9.97045 29.0362C10.4883 29.1319 10.6099 29.484 10.9103 29.6834C11.1151 29.8233 11.3271 29.761 11.3581 29.761H11.4279C11.4409 29.761 11.5367 29.6523 11.5885 29.6576C11.6921 29.6627 11.7024 29.7482 11.7671 29.7533C11.9198 29.7714 12.2151 29.6757 12.3627 29.7146C12.4065 29.7283 12.4463 29.7524 12.4787 29.7848C12.5112 29.8172 12.5353 29.857 12.5491 29.9008C12.5801 29.9965 12.5542 30.1182 12.4791 30.1882C12.3187 30.3356 12.1659 30.4756 12.1348 30.5978C12.1744 30.6279 12.2123 30.66 12.2485 30.6941C10.9675 30.3677 9.73503 29.8742 8.58276 29.2263V29.2248Z" fill="#CEB052"/>
<path fill-rule="evenodd" clip-rule="evenodd" d="M22.3689 24.0519C22.3689 24.0519 22.7727 23.5134 22.9126 23.2467C23.0524 22.9717 22.4699 19.4901 22.4699 19.4901L23.6402 15.6559L23.609 14.408C23.609 14.408 23.666 13.2559 23.8006 12.7561C23.9612 13.0435 24.4609 13.3905 24.5696 13.5743C24.6208 13.2221 24.7948 12.4792 24.769 11.6869C24.8647 11.8344 25.0951 13.318 25.0951 13.318L25.3255 14.3172L25.6259 15.3788L25.9599 16.4999L26.1592 17.274L26.2731 17.4604L26.369 17.7865L26.4596 18.1388L26.7211 18.9647L26.8747 19.6429L26.9964 20.8727C27.0228 20.9669 27.0419 21.063 27.0534 21.1601C27.0585 21.2948 27.0353 21.3724 27.0353 21.3958C27.0353 21.4192 27.0793 21.6909 27.0612 21.8955C27.0353 22.1003 27.0353 22.2606 26.8747 22.4075C26.7141 22.5545 26.6132 23.4327 26.6132 23.4327L26.3258 23.2412C26.3258 23.2412 26.3828 22.9796 26.2482 22.7415C26.1135 22.5034 25.852 22.4541 25.7044 22.493C25.557 22.5241 25.2619 22.5705 25.166 22.6534C25.0753 22.7362 24.8528 22.9926 24.6482 23.1091C24.3922 23.2627 23.975 23.2748 23.7525 23.3266C23.5272 23.3778 23.2787 23.5314 23.0171 23.7097C22.812 23.8425 22.5954 23.9567 22.3699 24.051V24.051L22.3689 24.0519Z" fill="#CCA847"/>
<path fill-rule="evenodd" clip-rule="evenodd" d="M22.3689 29.7088C22.3689 29.7088 22.386 29.7199 22.4189 29.738C24.2583 28.8762 25.9063 27.6547 27.2658 26.1455C27.251 25.6215 27.2317 25.0844 27.2105 24.8854C27.1667 24.4634 27.1977 24.0336 27.1848 23.7851C27.1718 23.5366 27.032 22.5243 26.9673 22.2628C26.8974 22.0013 26.7625 21.8718 26.7421 21.8718C26.724 21.8771 26.6151 22.3638 26.6151 22.4862C26.6151 22.6086 26.5891 22.9031 26.5891 22.9782C26.571 22.9729 26.5634 22.927 26.5634 22.9083C26.5374 22.9729 26.5064 23.0869 26.4934 23.0999C26.4804 23.1129 26.5115 22.9912 26.4934 22.9653C26.4753 22.9393 26.4422 22.9523 26.4494 22.8876C26.4524 22.8492 26.4585 22.8112 26.4675 22.7738C26.4675 22.7738 26.3898 22.8876 26.333 23.1776C26.276 23.465 26.276 23.4728 26.2553 23.4986C26.2372 23.5298 26.1336 23.6332 26.1283 23.6722C26.1232 23.742 26.2243 23.8119 26.2319 23.8507C26.2371 23.9155 26.1413 24.2157 26.1102 24.3627C26.0792 24.5096 26.0922 24.7975 26.059 24.9452C26.0331 25.0798 26.0078 25.1575 25.9193 25.2143C25.984 25.2273 26.0461 25.2454 26.0461 25.2454C26.0461 25.2454 26.1367 25.6285 25.9063 25.9548C25.8235 26.0687 25.8029 26.1205 25.7148 26.2241C25.5412 26.4156 25.4066 26.6337 25.3936 26.7756C25.3847 26.7337 25.3786 26.6913 25.3755 26.6486C25.3755 26.6486 25.1064 26.9619 24.9924 27.1406C24.8449 27.371 24.6403 27.358 24.5828 27.415C24.5253 27.4721 24.5128 27.5755 24.5316 27.6584C24.4804 27.6712 24.3841 27.6895 24.3193 27.8888C24.2882 27.9922 24.2106 28.0936 24.0889 28.1633C23.9672 28.2329 23.8196 28.2539 23.7445 28.272C23.8092 28.2901 23.8351 28.2901 23.8662 28.3107C23.8274 28.3754 23.6487 28.4764 23.4494 28.606C23.25 28.7276 23.1541 28.9062 23.105 29.0227C23.0538 29.1314 22.9782 29.2014 22.8565 29.2144C22.9077 29.2454 22.9835 29.3178 23.0222 29.3412C22.9652 29.3542 22.8686 29.3542 22.6961 29.5018C22.5148 29.652 22.4527 29.696 22.3697 29.709L22.3689 29.7088Z" fill="#C39D3C"/>
<path fill-rule="evenodd" clip-rule="evenodd" d="M18.7665 30.9086C18.8656 30.8391 18.973 30.7822 19.0861 30.7391C19.4899 30.5787 19.9171 30.5476 20.0854 30.4959C20.246 30.4447 20.3728 30.3741 20.5721 30.3353C20.5668 30.3807 20.5624 30.4234 20.5576 30.4637C19.9699 30.6484 19.3715 30.797 18.7656 30.9086H18.7665Z" fill="#D2BA6B"/>
<path fill-rule="evenodd" clip-rule="evenodd" d="M26.2143 20.2875C26.2143 20.2875 26.1315 20.7353 25.9839 21.0176C25.8363 21.2999 25.6767 21.6907 25.6767 21.6907C25.6777 21.6026 25.6881 21.5149 25.7078 21.4291C25.5214 21.5378 25.0683 21.7994 24.9398 21.9158C24.8181 22.0245 24.6134 22.2162 24.5617 22.3068C24.6834 21.9496 24.8102 21.6286 24.831 21.481C24.6447 21.6156 23.7746 22.3328 23.3217 22.8065L21.9106 23.9483C21.7478 24.0361 21.5801 24.1146 21.4083 24.1835C21.1651 24.2869 20.8777 24.3749 20.6654 24.4579C20.7224 24.3051 20.8129 24.1703 20.9398 24.041C21.0745 23.9141 21.4783 23.4766 21.5404 23.273C21.5974 23.0606 21.6104 22.9338 21.5353 22.7552C21.4653 22.7732 21.3049 22.7811 21.1962 22.8122C21.0875 22.8432 20.9709 22.9596 20.9709 22.9596C20.9709 22.9596 21.0537 22.4858 21.2324 22.038C21.0977 22.0431 20.8673 22.0819 20.8673 22.0819C20.8673 22.0819 21.1883 21.5434 21.7377 21.1681C21.5695 21.2039 21.4048 21.255 21.2459 21.3207C20.9248 21.4554 20.5727 21.6547 20.3113 21.7634C20.4587 21.5586 21.4943 20.0806 22.1106 18.7032C22.725 17.3285 22.9546 16.9764 23.0892 16.2386C23.159 15.8735 23.1404 15.3341 23.159 14.8509C23.1771 14.3718 23.2367 13.9421 23.1979 13.6547C23.3584 13.854 23.9591 14.4159 23.9798 15.6716C23.9978 16.9272 23.4051 18.6231 22.7759 19.5369C22.9295 19.5809 23.3275 19.6328 23.7364 18.9225C24.1453 18.2122 24.1404 18.0139 24.288 17.7186C24.3061 17.8662 24.3008 17.9179 24.3008 17.9179C24.3008 17.9179 24.8964 17.1957 25.1785 16.2869C25.2355 16.6779 25.4038 17.0223 25.1396 17.7394C24.9041 18.3866 24.596 18.5446 24.596 18.5446C24.596 18.5446 24.7488 18.5187 24.9739 18.384C25.0128 18.4798 25.0051 18.5888 25.0698 18.6274C25.1345 18.666 25.2226 18.731 25.2355 18.7931C25.3053 18.6895 25.414 18.5574 25.4478 18.4591C25.4219 18.6639 25.4038 19.5594 25.499 20.0151C25.6985 19.997 25.903 19.984 26.0428 19.6241C25.947 19.9764 25.947 20.1885 26.0117 20.4889C26.1179 20.4165 26.2136 20.287 26.2136 20.287L26.2143 20.2875Z" fill="#C0993A"/>
<path fill-rule="evenodd" clip-rule="evenodd" d="M19.4874 6.01687C19.4874 6.01687 19.288 6.09964 18.9489 6.09964C18.6538 6.09964 18.7366 5.98581 18.2758 5.98581C17.5665 5.98581 15.0888 6.39541 14.6538 6.38961C14.3715 6.38449 15.6064 6.51129 15.6064 6.51129L18.7626 6.55532L19.3968 6.50412L19.6324 6.02455L19.4874 6.01687Z" fill="#A88F33"/>
<path fill-rule="evenodd" clip-rule="evenodd" d="M11.3037 12.1865C11.3037 12.1865 10.8997 12.4945 10.7289 12.7302C10.558 12.9659 10.4674 13.121 10.2732 13.3127C10.3188 13.3144 10.3643 13.3083 10.4078 13.2946C10.4078 13.2946 10.4078 13.3458 10.3768 13.3593C10.4036 13.3563 10.4308 13.3593 10.4563 13.3682C10.4818 13.377 10.505 13.3915 10.5242 13.4105C10.4672 13.4415 10.3119 13.597 10.4336 13.7808C10.5242 13.9206 10.7159 13.9334 10.7159 13.9334C10.7159 13.9334 10.6719 14.0604 10.8557 14.0474C11.2518 14.0293 11.6945 13.8557 11.899 13.8998C12.1038 13.951 12.2202 13.9697 12.3651 14.221C12.5187 14.4695 12.6525 14.5084 12.6525 14.5084C12.6525 14.5084 12.7431 14.2778 12.7224 13.9336C12.7967 13.748 12.8379 13.5509 12.8441 13.3511L12.7095 12.3595L12.1219 11.6164L11.3607 12.0385L11.3037 12.1859V12.1865Z" fill="#E3C571"/>
<path fill-rule="evenodd" clip-rule="evenodd" d="M12.0259 12.0388C12.0259 12.0388 12.0829 12.1735 12.3211 12.1863C12.2952 12.2433 12.2952 12.2511 12.303 12.295C12.3082 12.339 12.3158 12.4037 12.3158 12.4037C12.3421 12.391 12.3658 12.3737 12.3858 12.3525C12.3988 12.4095 12.3728 12.5 12.3858 12.5648C12.3938 12.6043 12.4068 12.6425 12.4246 12.6787C12.4283 12.6698 12.4327 12.6612 12.4375 12.6529C12.4426 12.6399 12.4887 12.7927 12.6162 12.9089C12.6161 12.891 12.6205 12.8734 12.629 12.8577C12.631 12.8902 12.6417 12.9215 12.6601 12.9483C12.6505 12.9438 12.6418 12.9377 12.6343 12.9302C12.6343 12.9302 12.6471 13.3398 12.7171 13.5516C12.7288 13.5379 12.7392 13.5232 12.7481 13.5076C12.7481 13.4948 12.743 13.6216 12.73 13.7124C12.712 13.803 12.7249 13.9298 12.7249 13.9298C12.7716 13.8931 12.8229 13.8626 12.8775 13.8392C12.9552 13.808 13.0823 13.7122 13.1598 13.4999C13.2047 13.3797 13.2394 13.2558 13.2634 13.1297C13.2884 13.1779 13.3057 13.2298 13.3146 13.2833C13.3199 13.348 13.4416 13.3144 13.4416 13.3144L13.4675 13.0321L13.6211 12.3926L13.7609 11.9965L14.434 10.9481L15.6502 10.0115L16.7117 10.2549L17.6074 9.03801L16.0644 8.11111L14.6041 8.26386L13.2789 10.0994L12.2175 11.7642L12.0259 12.0387V12.0388Z" fill="#D8B65B"/>
<path fill-rule="evenodd" clip-rule="evenodd" d="M19.6737 9.38257C19.6737 9.38257 19.583 9.40066 19.3216 9.53617C19.0601 9.67168 18.8789 9.71469 18.7778 9.91402C18.6768 10.1134 18.6691 10.2714 18.6691 10.2714C18.6691 10.2714 18.8478 10.1937 18.9514 10.1678C19.0601 10.142 19.1818 10.1497 19.1688 10.1937C19.1564 10.2239 19.1391 10.2519 19.1176 10.2765C19.1176 10.2765 19.3224 10.2714 19.317 10.3724C19.3115 10.4735 19.2782 10.5847 19.2395 10.6339C19.2006 10.6851 19.0401 10.7609 19.0221 10.8204C18.978 10.9421 19.0401 10.9472 19.0168 11.0455C18.9987 11.1415 18.9133 11.3278 18.6336 11.654C18.3462 11.9803 18.224 12.2107 18.224 12.2107C18.224 12.2107 18.0842 11.9492 18.0117 11.7239C17.9605 11.7497 17.6856 11.9025 17.6856 11.9025L17.0486 9.68379L17.0614 9.53617C17.0614 9.53617 17.1184 9.46637 17.1314 9.33683C17.0357 9.30577 17.0227 9.27983 16.8957 9.15831C16.7687 9.0368 16.6653 8.889 16.4532 8.78796C16.4221 8.73096 16.3832 8.65348 16.2279 8.62225C16.0726 8.59102 15.9794 8.56542 15.9794 8.56542C15.9794 8.56542 16.0622 8.53418 16.1011 8.4695C16.0052 8.48247 15.9277 8.51353 15.7179 8.50841C15.5056 8.50312 15.4823 8.49544 15.3659 8.51353C15.2495 8.53162 15.1099 8.58351 15.0578 8.40482C15.0008 8.36079 14.8791 8.3997 14.7755 8.55227C14.6719 8.70485 14.6358 8.82671 14.4364 8.88627C14.4224 8.97414 14.3916 9.0585 14.3458 9.13476C14.2888 9.23067 14.1982 9.32642 14.0765 9.46875C13.8848 9.69403 13.9159 10.0642 13.6104 10.3465C13.3023 10.6286 13.6616 9.5645 13.6616 9.5645L14.1534 8.3869L15.5541 7.0173L17.7289 6.86984L17.9412 7.99624L19.0028 8.3613L19.6733 9.38393L19.6737 9.38257Z" fill="#D3AE4D"/>
<path fill-rule="evenodd" clip-rule="evenodd" d="M20.0181 9.63105L19.1042 8.31333L18.4647 7.8213C18.4647 7.8213 18.0091 6.98265 17.978 6.95671C17.9521 6.93861 17.5223 6.89202 17.2479 6.87393L17.2991 7.00074C17.359 7.02019 17.4122 7.05609 17.4527 7.10433C17.5744 7.24411 17.652 7.50813 17.375 7.79041C17.4837 7.82915 17.5286 7.84161 17.6235 7.82915C17.5278 7.94316 17.3104 8.18653 17.2974 8.39884C17.2844 8.57224 17.3931 8.62395 17.3931 8.62395C17.3931 8.62395 17.2274 8.81561 17.2197 9.13595C17.298 9.04769 17.3836 8.96628 17.4757 8.89258C17.6674 8.73898 17.9314 8.56626 18.1101 8.45755C18.1077 8.50317 18.1138 8.54884 18.1282 8.5922C18.1282 8.5922 18.462 8.31777 18.7426 8.43946C18.8694 8.49646 18.8124 8.67515 18.8124 8.67515C18.8124 8.67515 18.986 8.61047 19.1076 8.73215C19.2293 8.85384 19.4027 9.16701 19.4908 9.28887C19.5295 9.34587 19.6306 9.45458 19.734 9.62269C19.8753 9.85833 19.9933 10.1072 20.0862 10.3658C20.0914 10.2622 20.1122 10.1173 20.291 10.1173L20.0192 9.63054L20.0181 9.63105Z" fill="#CAA13E"/>
<path fill-rule="evenodd" clip-rule="evenodd" d="M6.31732 13.3748C6.31732 13.3748 6.25264 13.2142 6.31732 12.901C6.382 12.5879 6.48304 12.4402 6.51666 11.9794C6.55028 11.5186 6.85066 10.9438 6.85066 10.9438L7.68163 10.566L8.26941 10.7264L8.44281 11.5135L7.69972 11.9231C7.69972 11.9231 7.66098 12.0965 7.45123 12.2363C7.24148 12.3761 6.95152 12.4848 6.88172 12.6273C6.83999 12.7146 6.80954 12.8068 6.79109 12.9017C6.79109 12.9017 6.57878 12.8577 6.45198 12.9975C6.31732 13.14 6.32244 13.2668 6.31732 13.3755V13.3748Z" fill="#F4EFC8"/>
<path fill-rule="evenodd" clip-rule="evenodd" d="M7.9949 13.1651C7.9949 13.1651 7.92493 13.2091 7.87322 13.3187C7.82202 13.2359 7.69965 12.7439 7.69453 12.3012C7.68941 11.8584 7.66296 11.7487 7.76536 11.5961C7.86776 11.4436 8.26934 11.2828 8.21233 11.008C8.15533 10.7466 7.91708 10.6378 7.62456 10.7129C7.41976 10.7641 7.26735 11.1997 7.05504 11.4171C6.89445 11.5828 6.70296 11.5569 6.65125 11.6475C6.58127 11.7692 6.64595 11.8909 6.6253 11.9685C6.62001 11.9945 6.55533 12.1342 6.43877 12.3025C6.20325 12.6416 5.80457 13.1207 5.75269 13.5504C5.77078 13.3071 5.75798 13.3019 5.82266 13.0326L5.78375 12.9679L6.03975 12.1291L6.20546 11.4379L6.57581 10.2805L7.2281 9.0974L7.86247 8.38794L8.52261 8.43197L8.60026 9.42354L8.97829 11.2852L9.77308 12.2638L8.49922 13.121L7.99439 13.1651H7.9949Z" fill="#EBCC73"/>
<path fill-rule="evenodd" clip-rule="evenodd" d="M8.39109 13.5168C8.39109 13.5168 8.28238 13.5427 8.24347 13.5221C8.20455 13.5014 8.16598 13.478 8.17878 13.4521C8.19158 13.4262 8.26156 13.3823 8.26156 13.3615C8.26299 13.3427 8.25704 13.324 8.24497 13.3095C8.23289 13.295 8.21564 13.2858 8.19687 13.2838C8.13731 13.2761 8.11922 13.3149 8.11922 13.3149C8.11922 13.3149 8.06222 13.271 8.0158 13.2637C8.04326 13.2603 8.0709 13.2586 8.09857 13.2584C8.02702 13.226 7.95113 13.2042 7.87329 13.1937C7.93797 13.155 8.06495 13.041 8.14772 13.041C8.2305 13.041 8.28238 13.0282 8.26941 12.9841C8.25644 12.9401 8.19175 12.8754 8.12195 12.8495C8.14772 12.8184 8.16598 12.7718 8.10386 12.6447C8.03901 12.5179 8.06495 12.4324 8.08577 12.4015C8.10386 12.3626 8.16854 12.2928 8.19961 12.2487C8.23067 12.2047 8.25661 12.1451 8.30832 12.1141C8.33426 12.096 8.41703 12.0629 8.49998 12.0313C8.5906 12.0002 8.6657 11.9613 8.71741 12.0002C8.77441 12.039 8.74847 12.0909 8.74847 12.0909C8.74847 12.0909 8.92716 12.026 9.08758 12.109C9.24818 12.1864 9.63918 12.2358 9.63918 12.2358L9.77929 12.518L8.8524 13.3128L8.46926 13.5045L8.39161 13.5173L8.39109 13.5168Z" fill="#E5C66B"/>
<path fill-rule="evenodd" clip-rule="evenodd" d="M9.67766 12.2175C9.67766 12.2175 9.39026 12.4092 9.32557 12.479C9.36431 12.4843 9.429 12.5102 9.40306 12.5489C9.37199 12.5877 9.18563 12.7223 9.08203 12.8493C8.97332 12.9761 8.86972 13.1367 8.83354 13.2144C8.7948 13.2842 8.49955 13.4888 8.39868 13.5146C8.61099 13.5146 9.03817 13.2531 9.1986 13.2531C9.19348 13.3308 9.24263 13.4188 9.33325 13.4265C9.42388 13.4342 9.68534 13.4835 10.0374 13.2661C10.3895 13.0538 10.2731 12.8957 10.4206 12.7923C10.7029 12.6058 10.8167 12.4401 10.972 12.3366C11.1273 12.2332 11.2077 12.2097 11.2077 12.2097C11.2077 12.2097 11.2128 12.132 11.2589 12.1399C11.2715 12.1413 11.2835 12.1462 11.2935 12.1539C11.3036 12.1617 11.3113 12.1721 11.3159 12.1839C11.3159 12.1839 11.5852 11.9922 11.9303 11.9405C11.9222 11.9369 11.9158 11.9305 11.9122 11.9224C11.9122 11.9224 11.938 11.9095 11.9433 11.8965C11.9433 11.8965 11.9613 11.8705 11.9743 11.8835C11.9873 11.8965 12.0054 11.9922 12.0313 12.0311C12.0883 12.0052 12.197 11.7618 12.197 11.7618L12.4587 11.0136V10.3301L12.2539 10.369L10.7179 11.0213L9.78569 11.9871L9.67698 12.2175H9.67766Z" fill="#E6BD62"/>
<path fill-rule="evenodd" clip-rule="evenodd" d="M14.0996 8.86478C14.1827 8.84463 14.2624 8.81231 14.336 8.76887C14.3049 8.85181 14.3049 8.94244 14.1703 9.13922C14.0356 9.33599 14.0305 9.3645 13.9218 9.56895C13.8131 9.78126 13.8001 10.0868 13.6965 10.2212C13.7429 10.1987 13.7927 10.1839 13.844 10.1774C13.844 10.1774 13.7405 10.268 13.6965 10.3637C13.6525 10.4595 13.5748 10.6588 13.3833 10.7807C13.1918 10.9025 12.9483 10.98 12.6868 11.2674C12.4252 11.5495 12.1561 11.9069 12.0212 12.0354C12.0912 11.9137 12.187 11.6704 12.2129 11.5099C12.2388 11.3495 12.2076 11.1577 12.2516 10.9456C12.2957 10.7334 12.2957 10.5805 12.5076 10.2101C12.7196 9.8398 13.0824 8.55315 13.0824 8.55315L13.8643 8.30466L14.1 8.86393L14.0996 8.86478Z" fill="#B6933F"/>
<path fill-rule="evenodd" clip-rule="evenodd" d="M13.5352 8.391C13.5352 8.391 13.2997 8.73012 13.235 9.03049C13.1703 9.33086 13.2297 9.30492 13.191 9.45255C13.1678 9.54256 13.1678 9.63697 13.191 9.72698C13.2725 9.59557 13.3842 9.48547 13.5168 9.40579C13.7395 9.2713 13.9207 9.17539 14.0288 9.06155C14.1375 8.93987 14.2281 8.74053 14.4636 8.58778C14.3679 8.57481 14.2332 8.53078 14.2076 8.53658C14.3035 8.42787 14.5908 8.26215 14.8807 8.06281C15.1681 7.85801 15.15 7.77541 15.6161 7.57095C15.4634 7.59689 15.3909 7.55798 15.2639 7.57095C15.3151 7.46223 15.4943 7.41035 15.6735 7.23183C15.8527 7.05332 15.5596 6.78912 15.5596 6.78912L14.1943 7.61498L13.5342 8.39168L13.5352 8.391Z" fill="#C49937"/>
<path fill-rule="evenodd" clip-rule="evenodd" d="M9.83032 7.77473L9.86138 7.52624L10.2524 6.89972L10.6615 5.79943V4.29518L10.6304 3.42529L10.6951 2.8556L10.7442 2.67453L10.7961 2.60455L11.1299 2.77795L11.5909 3.40447L11.635 4.61364L11.187 6.52169L9.90798 7.91723L9.83032 7.77473Z" fill="#DFC068"/>
<path fill-rule="evenodd" clip-rule="evenodd" d="M10.848 2.53458C10.848 2.53458 10.6432 2.53988 10.5995 3.39167C10.5558 4.24347 10.5346 4.6913 10.5036 5.11336C10.4725 5.53542 10.4001 5.79159 10.3638 6.04025C10.3274 6.28891 10.3068 6.62786 10.1904 6.83504C10.1392 6.93079 10.0298 7.23116 9.77344 7.45644C9.48604 7.70493 9.05664 7.8785 8.99161 7.89147C8.87761 7.91724 8.30024 7.97425 8.06472 8.10378C7.98195 8.14781 7.83944 8.19953 7.68158 8.34715C7.36823 8.62926 6.95147 9.1341 6.65109 9.74252C6.19029 10.6513 5.72949 13.217 5.72949 13.217L5.83309 13.0436C5.83309 13.0436 5.84606 12.8132 6.07646 12.4092C6.30174 12.0054 6.23705 11.5523 6.55023 10.7781C6.67191 10.483 6.82466 10.0999 7.01103 9.77359C7.30628 9.24281 7.66349 8.78713 8.02342 8.53864C8.61103 8.13484 9.25837 8.04678 9.25837 8.04678L9.95486 7.58598C9.95486 7.58598 10.0765 7.35046 10.2371 7.08115C10.4622 6.70329 10.7491 6.28123 10.8118 5.66768C10.9077 4.75888 10.6771 4.16343 10.6901 3.62497C10.7031 3.08652 10.7082 2.6904 10.8171 2.59449C10.926 2.49857 10.8481 2.53493 10.8481 2.53493L10.848 2.53458Z" fill="#A88F33"/>
<path fill-rule="evenodd" clip-rule="evenodd" d="M10.848 6.59935C10.848 6.59935 11.1552 5.8433 11.2958 5.17275C11.3218 5.0381 11.3735 4.90361 11.3864 4.7949C11.4511 4.16053 11.4692 3.89907 11.3864 3.5521C11.3218 3.2961 11.0733 3.06536 10.9437 2.8865C10.8169 2.69996 10.7574 2.6305 10.7833 2.59125C10.8093 2.552 10.9101 2.48782 11.0084 2.4955C11.1129 2.49855 11.2157 2.52281 11.3105 2.56682C11.4054 2.61083 11.4902 2.67366 11.56 2.7515C11.7594 2.9819 11.9172 3.7639 11.9172 3.7639L12.0833 4.79575L12.5053 6.09538L10.8483 6.60038L10.848 6.59935Z" fill="#C99E3D"/>
<path fill-rule="evenodd" clip-rule="evenodd" d="M13.7345 5.81238C13.7345 5.81238 13.6775 5.83816 13.5741 5.81238C13.5785 5.85465 13.5712 5.89731 13.5529 5.93567C13.5346 5.97404 13.5061 6.00661 13.4705 6.02981C13.3618 5.98578 12.3441 6.07385 12.3441 6.07385C12.3441 6.07385 11.8703 5.9909 11.7227 5.36438C11.6193 4.94745 11.8004 4.37281 11.7408 3.99478C11.6502 3.43807 11.5234 3.32918 11.5104 3.15596C11.4974 2.98273 11.4845 2.93853 11.4845 2.82981C11.4275 2.81684 11.3938 2.79875 11.337 2.79875C11.324 2.74755 11.3498 2.70284 11.293 2.61221C11.324 2.62518 11.5363 2.65113 11.7848 2.88665C11.9896 3.0783 11.9896 3.14811 12.0205 3.18702C12.0593 3.22576 12.3726 3.49422 12.5073 3.76182C12.6419 4.02943 12.9034 4.88276 12.9629 5.02254C12.981 5.07954 13.0199 5.13654 13.1165 5.26591C13.2667 5.45245 13.4867 5.76084 13.7352 5.81204L13.7345 5.81238Z" fill="#B58634"/>
<path fill-rule="evenodd" clip-rule="evenodd" d="M12.0571 3.20001C12.214 3.45337 12.3549 3.71625 12.479 3.98713C12.6318 4.33136 12.7224 4.61364 12.914 4.84404C12.8105 4.54384 12.6266 3.95351 12.5179 3.74376C12.3962 3.52189 12.1478 3.28296 12.0571 3.20018V3.20001Z" fill="#A88F33"/>
<path fill-rule="evenodd" clip-rule="evenodd" d="M10.2964 7.45641C10.2964 7.45641 10.035 7.52109 9.54821 7.77743C9.38762 7.86021 9.23504 7.93001 9.08741 7.99486C8.70393 8.16826 8.29262 8.32851 7.96631 8.41692C7.99225 8.44798 8.00505 8.46078 8.00505 8.46078C8.00505 8.46078 8.00505 8.58776 8.07502 8.66012C8.03628 8.69903 7.51831 9.05112 7.67122 10.2291C7.77465 10.1903 7.89633 10.1384 7.91442 10.1384C7.94565 10.1437 7.95334 10.2291 7.99208 10.2291C8.03082 10.2291 8.15779 10.1779 8.29245 10.0038C8.28733 10.0738 8.20968 10.7779 8.62644 11.2517C8.7041 11.1611 8.90088 10.8607 8.90088 10.8607L8.906 10.765C8.906 10.765 8.92409 10.431 9.03297 10.1255C9.14186 9.81997 9.354 9.59469 9.354 9.59469L10.4618 8.01278L10.2961 7.45624L10.2964 7.45641Z" fill="#E6C367"/>
<path fill-rule="evenodd" clip-rule="evenodd" d="M9.26091 9.77921C9.21019 9.81505 9.15431 9.84296 9.09519 9.86198C9.0771 9.7973 9.05116 9.57458 9.2039 9.35715C9.38259 9.09552 9.77342 8.7564 9.88213 8.48675C9.95211 8.31318 9.92104 7.87832 10.5424 7.32161C11.1638 6.76489 11.407 6.57341 11.407 6.57341L12.4116 6.06857L13.6465 6.55531L13.033 8.96001L12.5567 10.0864L10.6622 9.7292L9.26074 9.77921H9.26091Z" fill="#DCBA5A"/>
<path fill-rule="evenodd" clip-rule="evenodd" d="M9.98389 9.12625L10.2196 8.83117V8.62142C10.2196 8.62142 10.481 8.55144 10.7632 8.26404C11.0453 7.97664 11.4363 7.42522 11.7807 7.45884C12.1251 7.49775 12.1587 8.20704 12.1717 8.40655C12.1846 8.60606 12.2287 9.05884 12.2985 9.30238C12.3761 9.54575 11.4596 10.4673 11.4596 10.4673L10.8372 10.9411L9.98389 9.12625Z" fill="#E9CE77"/>
<path fill-rule="evenodd" clip-rule="evenodd" d="M10.7131 11.5831C10.7131 11.5831 10.9048 11.2828 10.7643 11.2181C10.8471 11.0317 10.9999 10.8349 10.9999 10.8349C10.9999 10.8349 11.1086 10.5658 11.4607 10.2344C11.8127 9.90294 12.0303 9.68278 12.0873 9.46023C12.1225 9.31519 12.1416 9.16673 12.1443 9.01752C12.1824 9.04861 12.2231 9.07631 12.266 9.10029C12.323 9.12623 12.5922 9.34878 12.5534 9.79678C12.5147 10.2448 12.3486 10.4311 12.3486 10.4311C12.3486 10.4311 12.1882 10.5916 12.0744 10.6745C11.9525 10.7573 11.9087 10.853 11.704 10.8609C11.7251 10.8442 11.7487 10.831 11.774 10.822C11.774 10.822 11.5617 10.7962 11.4477 10.8996C11.3337 11.0031 11.0913 11.3217 10.9696 11.4176C10.848 11.4953 10.7136 11.5833 10.7136 11.5833L10.7131 11.5831Z" fill="#CDAE50"/>
<path fill-rule="evenodd" clip-rule="evenodd" d="M19.3217 6.54746C19.0158 6.43598 18.6944 6.37309 18.3691 6.36109C17.8253 6.343 17.0305 6.37406 16.2513 6.37918C15.4124 6.3843 14.6513 6.09178 13.595 6.04007C13.4216 5.93647 12.9806 5.48335 11.604 6.44386C11.6868 6.43874 12.6034 6.23155 12.9217 6.6304C13.2427 7.02652 13.1521 7.69963 13.1083 7.86005C13.0253 8.21743 12.756 8.73779 12.6475 9.10285C12.5389 9.46791 12.5645 9.65973 12.4869 9.91573C12.4092 10.1717 12.2384 10.2989 12.3392 10.594C12.4739 10.5112 12.544 10.5112 12.769 10.0064C12.9939 9.50153 12.9477 9.14159 13.3206 8.71441C13.6856 8.28467 14.2934 7.6969 14.5245 7.54927C14.7555 7.40164 16.5904 6.44898 18.5116 7.35778C18.9749 7.30863 19.3219 6.54729 19.3219 6.54729L19.3217 6.54746Z" fill="#D2A83E"/>
<path fill-rule="evenodd" clip-rule="evenodd" d="M12.378 6.1952C12.3761 6.17574 12.3718 6.1566 12.3652 6.1382C12.3473 6.10033 12.3237 6.06541 12.2952 6.0346C12.2952 6.0346 11.8396 5.95183 11.6092 5.9776C11.2052 6.02163 10.8401 6.52134 10.6693 6.77769C10.4985 7.03403 10.2862 7.42997 10.0558 7.6346C10.0583 7.61467 10.0537 7.59448 10.0428 7.5776C10.0428 7.5776 10.0558 7.59569 10.03 7.62163C10.0042 7.64757 10.004 7.66037 10.017 7.67283L10.0559 7.71157C10.0687 7.71157 10.4261 7.55098 10.9128 7.09717C11.4306 6.6234 11.8268 6.38037 12.034 6.29709C12.1444 6.25013 12.2599 6.21595 12.3782 6.1952V6.1952H12.378Z" fill="#C29637"/>
<path fill-rule="evenodd" clip-rule="evenodd" d="M21.217 4.24857C21.217 4.24857 21.134 4.35199 21.0304 4.46599C20.8 4.70937 20.4997 4.98363 20.2433 5.26591C20.0001 5.53522 19.7257 5.74497 19.4175 6.09706C19.1092 6.44914 18.7519 6.83997 18.6614 6.95397C18.5786 7.06798 18.514 7.25435 18.514 7.35009C18.4699 7.31903 18.4182 7.28541 18.4182 7.28541C18.44 7.32605 18.466 7.36427 18.4959 7.39941C18.5605 7.49004 18.6614 7.60421 18.7133 7.67385C18.7769 7.76249 18.8226 7.86273 18.8478 7.96893C18.8788 7.97405 19.0782 8.01296 19.3268 7.60387C19.5755 7.19478 19.9015 6.74695 19.9015 6.74695L20.4193 5.97793L20.7456 5.32564L21.1552 4.59553L21.2175 4.24857H21.217Z" fill="#AC8132"/>
<path fill-rule="evenodd" clip-rule="evenodd" d="M21.7477 3.72565C21.7477 3.72565 21.4344 3.98165 21.3127 4.13525C21.191 4.28885 20.9031 4.69196 20.9031 4.69196L21.0067 4.67899L21.5323 4.21307L21.7371 3.84801L21.7475 3.72633L21.7477 3.72565Z" fill="#A88F33"/>
<path fill-rule="evenodd" clip-rule="evenodd" d="M21.6518 24.3004C21.6518 24.3004 21.6466 24.0881 21.7658 23.9613C21.8874 23.8343 22.1955 23.6479 22.4959 22.9489C22.7962 22.2498 22.8297 22.0919 22.8297 22.0919C22.8297 22.0919 22.2912 22.5527 21.9593 22.6615C22.037 22.5009 22.081 22.387 22.1199 22.3041C22.0759 22.2653 21.8895 22.2213 21.8714 22.2007C21.9748 22.0971 22.0318 21.8433 22.2416 21.675C22.5109 21.4702 23.0028 21.1183 23.385 20.8046C23.7673 20.4909 24.519 19.7613 24.6149 19.549C24.6719 19.6318 24.6847 19.6835 24.6847 19.6835C24.6847 19.6835 24.3068 20.1755 24.11 20.4887C23.9365 20.758 23.9494 20.9108 23.9494 20.9108L24.3068 20.7572C24.3068 20.7572 24.4102 21.1403 23.9418 21.723C24.1466 21.6453 24.2292 21.6919 24.3456 21.627C24.1539 21.7489 23.8899 21.9146 23.6414 22.3701C23.398 22.8258 23.0666 23.3566 22.5075 23.6878C21.9637 24.0374 21.6504 24.2988 21.6504 24.2988L21.6518 24.3004Z" fill="#A67A2E"/>
<path fill-rule="evenodd" clip-rule="evenodd" d="M20.2487 6.81694C20.2487 6.81694 20.0363 7.25948 20.0053 7.60388C20.0002 7.68683 19.9793 7.75151 19.9793 7.84725C19.9742 8.15531 19.9974 8.49971 19.9281 8.66014C19.9022 8.59546 19.8892 8.55142 19.8633 8.52565C19.8245 8.63437 19.7546 8.97348 19.6976 9.10029C19.6718 9.01751 19.6148 8.73011 19.6201 8.391C19.6254 8.05188 19.6329 7.98703 19.6329 7.91723C19.6201 8.02065 19.5501 8.1606 19.5242 8.24337C19.4854 8.17357 19.4414 8.08294 19.3895 8.00785C19.3585 8.05905 19.3197 8.13466 19.2861 8.17357C19.2808 8.14251 19.268 8.05956 19.2602 7.94317C19.255 7.80851 19.2472 7.63512 19.255 7.59876C19.2678 7.52896 19.3767 7.25453 19.6071 7.00331C19.8815 6.70293 20.1638 6.12574 20.2466 5.94705C20.3294 5.76836 20.6815 5.02545 20.6815 5.02545H20.9508L20.5598 5.91599C20.5598 5.91599 20.3243 6.40273 20.2026 6.58159C20.0809 6.76045 19.8245 7.27296 19.7105 7.4723C19.7933 7.36358 19.8633 7.30658 19.9462 7.20299C20.0264 7.13045 20.249 6.81728 20.249 6.81728L20.2487 6.81694Z" fill="#8C6228"/>
<path fill-rule="evenodd" clip-rule="evenodd" d="M21.7529 3.69186C21.7089 3.82726 21.6394 3.95297 21.5481 4.06221C21.3875 4.25387 21.0431 4.51004 20.875 4.7145C20.7214 4.91384 20.4142 5.45758 20.5538 6.10219C20.605 5.96241 20.7014 5.68542 20.9577 5.37208C21.2141 5.05873 21.4885 4.69897 21.6233 4.41942C21.7578 4.13713 21.7759 3.91458 21.7759 3.91458L21.8271 3.8499L21.7961 3.70227L21.752 3.69186H21.7529Z" fill="#CBA94C"/>
<path fill-rule="evenodd" clip-rule="evenodd" d="M26.9955 20.8647C26.9955 20.8647 26.8919 20.5826 26.8608 20.3262C26.8298 20.0699 26.912 20.019 26.8168 19.7256C26.7598 19.5469 26.6564 19.572 26.6304 19.5469C26.6045 19.5219 26.5864 19.2519 26.5915 19.1042C26.5967 18.9566 26.5864 18.7651 26.5605 18.6822C26.5217 18.6511 26.4958 18.6252 26.4388 18.4337C26.3741 18.242 26.343 18.1463 26.312 18.0895C26.2809 18.0326 26.1901 17.9807 26.1901 17.9237C26.1901 17.8097 26.2937 17.7503 26.2937 17.7189C26.2886 17.6543 26.2109 17.7061 26.1901 17.6879C26.1644 17.6568 26.255 17.4704 26.2214 17.4445C26.2084 17.4317 26.1178 17.5404 26.0944 17.5094C26.0684 17.4781 26.0374 17.1701 25.9908 16.9656C25.9469 16.7663 25.9002 16.6214 25.895 16.5618C25.8899 16.5048 25.5377 15.5003 25.4523 15.2569C25.3836 15.0513 25.3257 14.8421 25.2789 14.6304C25.253 14.5087 25.2349 14.26 25.2219 14.286C25.209 14.3119 25.2168 14.4387 25.196 14.4336C25.1779 14.4283 25.1132 13.9858 25.0926 13.9158C25.0745 13.8458 24.9656 13.6086 24.939 13.4369C24.913 13.2633 24.8562 12.8102 24.8173 12.5022C24.7784 12.1941 24.7603 12.0673 24.7603 11.9902C24.7666 11.8015 24.7562 11.6126 24.7292 11.4258C24.678 11.0995 24.5756 10.7033 24.4858 10.4731C24.3124 10.0381 23.8515 8.92483 23.769 8.64784C23.769 8.57786 23.8597 8.61678 23.8597 8.61678C23.8597 8.61678 24.0848 9.18117 24.2505 9.61603C24.4111 10.0511 24.5638 10.4342 24.6027 10.4731C24.6338 10.5119 24.8772 10.939 24.9859 11.6381C25.0946 12.3371 25.1334 12.9817 25.1982 13.4115C25.2293 13.6163 25.2552 13.8335 25.3199 14.051C25.3897 14.2867 25.4984 14.53 25.6409 14.9028C25.7626 15.2161 25.8532 15.4776 25.9024 15.7029C25.9594 15.9903 25.9594 16.2077 25.993 16.3502C26.0242 16.4719 26.0707 16.7151 26.1795 17.067C26.2884 17.4189 26.4487 17.8722 26.5574 18.1543C26.7699 18.7187 26.8646 19.1899 26.8967 19.4411C26.925 19.7 27.0209 20.5959 26.995 20.865L26.9955 20.8647Z" fill="#A88F33"/>
<path fill-rule="evenodd" clip-rule="evenodd" d="M21.7658 3.66079L21.7528 3.69185C21.7528 3.69185 21.7916 3.70482 21.7839 3.75671C21.7844 3.82769 21.7801 3.89863 21.7709 3.96902C21.7581 4.05964 21.7322 4.12944 21.727 4.18645C21.727 4.30813 21.7451 4.44791 21.5734 4.79487C21.5222 4.89062 21.4907 4.97339 21.4647 5.03039C21.4 5.17017 21.3871 5.19099 21.3301 5.25567C21.4207 5.20447 21.747 4.99967 21.9126 5.03039C21.7987 5.09508 21.6252 5.22205 21.5164 5.38777C21.5424 5.39289 21.6511 5.41371 21.8236 5.38777C22.111 5.34374 22.4321 5.24014 22.7142 5.26079C23.0224 5.27888 22.9007 4.89062 22.9007 4.89062L22.545 4.10879L21.8719 3.63519L21.7658 3.66096V3.66079Z" fill="#BE9C44"/>
<path fill-rule="evenodd" clip-rule="evenodd" d="M23.5211 9.51724C23.5211 9.51724 23.2207 9.21687 23.099 8.18604C22.9773 7.15043 23.0033 5.62604 23.0033 5.62604L22.7599 5.03058C22.7599 5.03058 22.7087 4.63446 22.5812 4.48701C22.4537 4.33955 22.2033 4.09089 22.0893 3.9692C21.9753 3.84752 21.846 3.6818 21.7683 3.65586C21.8071 3.59118 21.9806 3.22612 22.6459 3.221C23.3111 3.21588 23.5163 3.58606 23.5857 3.72071C23.6552 3.85537 23.9689 4.43751 24.0853 5.54685C24.194 6.65482 24.1993 6.73776 24.1812 7.12091C24.1682 7.33322 24.0983 7.82508 23.9764 8.35056C23.8651 8.796 23.7434 9.29315 23.5207 9.51826L23.5211 9.51724Z" fill="#A17C34"/>
<path fill-rule="evenodd" clip-rule="evenodd" d="M22.5792 10.4001C22.6793 10.4073 22.7793 10.3847 22.8666 10.3352C22.9624 10.3301 23.3093 10.3741 23.5759 10.035C23.594 10.1125 23.6408 10.3224 23.5189 10.5088C23.5838 10.444 23.6795 10.4182 23.6925 10.4001C23.6976 10.4958 23.7882 10.7909 23.4051 11.5081C23.5085 11.3942 23.6302 11.3993 23.7389 11.3864C23.7442 11.521 23.8166 11.974 23.6251 12.2175C23.4983 12.3832 23.2911 12.3314 23.2911 12.3314C23.2941 12.2952 23.2941 12.2588 23.2911 12.2226C23.286 12.1527 23.26 12.0829 23.2783 12.0363C23.1782 11.9905 23.087 11.9274 23.009 11.8497C22.7837 11.6374 22.4912 11.2751 22.4705 11.0058C22.4446 10.7054 22.7139 10.6407 22.7139 10.6407C22.6913 10.6205 22.6721 10.5969 22.6569 10.5708C22.6439 10.5269 22.6309 10.4569 22.5792 10.4001V10.4001Z" fill="#8C6228"/>
<path fill-rule="evenodd" clip-rule="evenodd" d="M20.5823 7.1431C20.5823 7.1431 20.5693 7.12501 20.4995 7.20778C20.5125 7.12501 20.5255 7.04718 20.5306 6.97209C20.5636 6.90257 20.6064 6.83809 20.6575 6.7806C20.6186 6.85809 20.5927 6.92806 20.5927 6.92806C20.5927 6.92806 20.6886 6.74937 20.8284 6.64066C20.9241 6.563 21.0458 6.52682 21.0975 6.45429C21.1545 6.37663 21.1416 6.36366 21.1545 6.35069C21.1545 6.35069 21.2815 6.26792 21.4757 6.02438C21.5015 5.99332 21.5404 5.9597 21.5663 5.92863C21.6102 5.91054 21.7138 5.86395 21.8355 5.80166C21.9625 5.73186 22.1048 5.63611 22.1929 5.59686C22.3663 5.51921 22.5502 5.52706 22.6356 5.4052C22.7003 5.38711 22.7701 5.19289 22.7573 5.02734C22.853 5.06609 23.3449 5.37158 23.5133 6.03957C23.635 6.51334 23.4174 7.24345 23.3268 7.59571C23.2361 7.94796 23.2233 8.20925 23.0964 8.36968C22.9358 8.58216 22.4181 8.88168 22.2912 9.02999C22.1825 9.15167 21.8563 9.45973 21.8691 9.68228C21.8821 9.848 22.0865 9.93828 22.1307 9.96968C22.1749 10.0011 22.1746 10.0397 22.2575 10.0209C22.3405 10.0021 22.3714 9.96388 22.4052 9.96388C22.4439 9.969 22.4439 9.97685 22.462 9.97685C22.4751 9.97646 22.4882 9.97468 22.5009 9.97156C22.5009 9.97156 22.4879 10.2072 21.9365 10.2788C21.8976 10.284 21.8589 10.2968 21.8095 10.3047C21.8744 10.2736 21.9131 10.2736 21.9831 10.1779C21.9055 10.1649 21.6827 10.152 21.6257 10.1339C21.6438 10.1028 21.7034 10.0199 21.7525 9.98112C21.7966 9.94237 21.7474 9.92992 21.7087 9.95005C21.642 9.99543 21.578 10.0447 21.517 10.0975C21.4523 10.1545 21.3953 10.2322 21.2917 10.3023C21.2607 10.1987 21.2658 10.0019 21.3877 9.8596C21.3564 9.86472 21.2969 9.95534 21.24 9.93725C21.2298 9.84282 21.2359 9.74732 21.2581 9.65497C21.2892 9.53841 21.4575 9.33395 21.4575 9.33395L22.2703 7.8814L22.4437 6.78111L20.5823 7.14276V7.1431Z" fill="#92723A"/>
<path fill-rule="evenodd" clip-rule="evenodd" d="M20.5386 7.20522C20.5386 7.20522 20.4946 7.23628 20.5826 7.29584C20.5697 7.31393 20.5386 7.37862 20.4997 7.42265C20.4558 7.47385 20.4091 7.50559 20.391 7.54962C20.3522 7.64025 20.3212 7.70237 20.3212 7.74128C20.3212 7.7802 20.3082 8.02869 20.1995 8.18911C20.1606 8.24612 20.1165 8.34186 20.0855 8.40654C20.0208 8.52038 19.9638 8.61134 19.9508 8.66254C19.925 8.75317 19.907 9.00166 19.907 9.00166C19.907 9.00166 19.964 8.93168 19.9846 8.90591C19.9534 8.9706 19.9198 9.0404 19.8706 9.09228C19.9017 9.06634 19.9923 9.00166 20.145 8.867C20.3573 8.68848 20.6888 8.38811 21.0928 8.1502C20.9709 8.19423 20.8675 8.19423 20.7847 8.2072C20.8494 8.14252 21.4319 7.459 21.7374 7.39432C21.7559 7.3708 21.7651 7.34127 21.7633 7.31137L21.5017 7.2856L20.9709 7.39944L20.8934 6.98984L20.5386 7.20471V7.20522Z" fill="#B18E3E"/>
<path fill-rule="evenodd" clip-rule="evenodd" d="M21.3828 9.53531C21.3828 9.53531 21.3128 9.60511 21.2481 9.77868C21.1983 9.72668 21.1556 9.66832 21.1211 9.60511C21.0254 9.44469 20.8779 9.24006 20.5335 9.35662C20.5284 9.24791 20.5205 9.19091 20.5335 9.11325C20.5905 9.10045 20.7639 8.96068 20.9373 8.75605C21.0592 8.61627 21.173 8.45567 21.2507 8.25122C21.3019 8.2123 21.3904 8.14762 21.5067 8.07253C21.6724 7.95869 21.8717 7.80322 21.9028 7.62982C21.8251 7.66088 21.6594 7.73853 21.4107 7.72573C21.5067 7.6817 21.6541 7.63511 21.636 7.44345C21.6749 7.41751 21.706 7.39942 21.706 7.39942C21.6768 7.38969 21.6461 7.38529 21.6154 7.38645C21.6101 7.36836 21.6024 7.34259 21.5584 7.35539C21.5143 7.36819 21.5072 7.36836 21.5014 7.38645C21.4833 7.39174 21.4237 7.38645 21.3797 7.41768C21.3357 7.44891 21.214 7.55217 21.1674 7.57026C21.1855 7.53919 21.2112 7.49277 21.2112 7.49277C21.2112 7.49277 21.0844 7.50557 20.9938 7.54397C20.8281 7.60098 20.6366 7.70457 20.4424 7.80543C20.4605 7.77437 20.4683 7.75423 20.4811 7.74843C20.4939 7.74263 20.5252 7.73563 20.5252 7.73034C20.5252 7.72505 20.5124 7.67914 20.52 7.66054C20.5781 7.53753 20.6466 7.41973 20.7248 7.30845C20.8155 7.1866 20.8335 7.0132 20.8335 7.0132L21.2297 6.81386L22.3429 6.55786L23.0654 6.60189L22.9747 7.10161L22.5481 7.97405L22.183 8.76885L21.7661 9.25576L21.3829 9.53531H21.3828Z" fill="#543E26"/>
<path fill-rule="evenodd" clip-rule="evenodd" d="M23.1872 7.37281C23.1872 7.37281 22.7521 7.91126 22.6305 7.99421C22.7081 7.82849 23.1872 6.84204 23.3606 6.5676C23.3218 6.53654 23.2699 6.53654 23.3916 6.0556C23.2882 6.2988 23.2519 6.42578 23.1665 6.49046C23.0812 6.55514 23.0706 6.53449 23.0129 6.53449C23.0238 6.51479 23.0283 6.49218 23.0257 6.46981C23.0257 6.46981 22.6607 6.42578 22.4113 6.42578C22.162 6.42578 21.6684 6.56043 21.3938 6.66915C21.1764 6.75977 21.0547 6.75977 20.977 6.81661C20.8994 6.88129 20.8554 6.95126 20.8164 6.96935C20.7854 6.98744 20.6379 7.03403 20.6041 7.08319C20.5731 7.13439 20.5214 7.1919 20.5214 7.20487C20.5214 7.21784 20.5084 7.2361 20.5473 7.22296C20.5601 7.21784 20.656 7.16596 20.7647 7.10128C20.9122 7.0185 21.0909 6.92276 21.2204 6.86576C21.5906 6.71813 21.7072 6.74407 21.8727 6.71301C22.0461 6.68195 22.2948 6.60942 22.4603 6.60942C22.626 6.6043 22.9394 6.60942 23.0119 6.62239C22.9808 6.64833 22.9549 6.67939 22.9679 6.7881C22.9679 6.81917 22.9419 6.85279 22.9167 6.92788C22.8392 7.14019 22.6916 7.49228 22.6095 7.67096C22.4956 7.91416 22.3663 8.11879 22.3023 8.2456C22.2383 8.3724 22.0975 8.7064 21.958 8.88509C21.8186 9.06377 21.7457 9.17249 21.702 9.2114C21.6583 9.25031 21.3447 9.48054 21.368 9.56349C21.425 9.5454 21.785 9.40989 22.0463 9.11566C22.3076 8.82143 22.3596 8.64189 22.5641 8.48129C22.7685 8.32069 22.9291 8.05155 23.0249 7.829C23.1051 7.62181 23.087 7.55713 23.1879 7.37332L23.1872 7.37281Z" fill="#806031"/>
<path fill-rule="evenodd" clip-rule="evenodd" d="M13.8124 11.3917C13.8124 11.3917 13.7554 11.6272 13.6258 11.7438C13.499 11.8578 13.2737 11.9561 13.248 12.1477C13.2169 12.3392 13.4733 12.4351 13.4733 12.4351C13.4733 12.4351 13.3333 12.6655 13.3333 12.8389C13.3333 13.0176 13.3282 13.0512 13.3463 13.2221C13.3257 13.2353 13.3083 13.2527 13.2951 13.2733C13.2951 13.2733 13.3079 13.439 13.4349 13.5424C13.5618 13.6458 13.6704 13.7081 13.7351 13.6822C13.7449 13.7033 13.7536 13.7249 13.761 13.747C13.761 13.747 13.8569 13.5037 13.9216 13.2914C13.9863 13.0739 14.0433 13.1048 14.0691 12.8123C14.0948 12.5198 14.3763 12.0175 14.3763 12.0175L14.5683 11.5883L14.2551 11.3449L13.8124 11.3915V11.3917Z" fill="#B6903C"/>
<path fill-rule="evenodd" clip-rule="evenodd" d="M14.3948 11.8135C14.3302 11.8798 14.2706 11.9508 14.2164 12.0258C14.1337 12.1399 14.069 12.2433 13.9473 12.2875C13.8256 12.3317 13.748 12.3313 13.7556 12.4532C13.7633 12.5751 13.8773 12.6266 13.942 12.6887C14.012 12.7534 14.069 12.8621 14.0379 12.984C14.0767 12.9659 14.1466 12.9451 14.2113 12.8053C14.276 12.6655 14.7285 11.8137 14.7285 11.8137H14.3948V11.8135Z" fill="#685026"/>
<path fill-rule="evenodd" clip-rule="evenodd" d="M16.1792 9.84849C16.1792 9.84849 16.2179 9.74506 16.1792 9.66997C16.1403 9.59231 15.9047 9.56637 15.7882 9.47831C15.6665 9.38769 15.5189 9.32471 15.3972 9.36447C15.4153 9.32044 15.4878 9.22453 15.4282 9.20388C15.3712 9.18579 15.1591 9.28153 15.1021 9.32556C15.0451 9.36959 14.9155 9.42131 14.8898 9.45254C14.864 9.48377 14.8198 9.54316 14.7939 9.51722C14.7679 9.49913 14.7551 9.45254 14.7111 9.47831C14.6671 9.50408 14.4551 9.67765 14.416 9.77868C14.3769 9.87972 14.289 10.105 14.025 10.3612C13.761 10.6173 13.647 10.7832 13.7246 10.879C13.8023 10.9747 13.8386 10.9049 13.8516 10.9877C13.8616 11.0689 13.8572 11.1513 13.8386 11.2311C13.8076 11.3657 13.7559 11.4925 13.8257 11.5185C14.0044 11.5755 14.1779 11.4673 14.2167 11.5004C14.2943 11.5702 14.1726 11.8214 14.3564 11.8705C14.543 11.9217 14.7268 11.8265 14.7268 11.8265L15.405 11.4615L16.0575 11.1172L16.3913 10.4569L16.2123 9.90549L16.1781 9.84849H16.1792Z" fill="#D4B968"/>
<path fill-rule="evenodd" clip-rule="evenodd" d="M15.5391 11.4253C15.5391 11.4253 15.4251 11.2519 15.5651 11.099C15.705 10.9461 15.9042 10.8815 15.9818 10.7858C15.9671 10.7676 15.9472 10.7541 15.9248 10.7471C15.9764 10.6548 16.055 10.5806 16.1501 10.5346C16.1114 10.4958 16.0595 10.4648 16.0027 10.4648C15.8757 10.4648 15.7979 10.5424 15.6815 10.5424C15.5676 10.5424 15.5547 10.4854 15.5547 10.4854C15.5547 10.4854 15.7463 10.4673 15.7281 10.3818C15.71 10.2912 15.6769 10.2912 15.6769 10.2912C15.6769 10.2912 16.047 10.1376 16.1117 10.0557C16.1764 9.97377 16.1687 9.877 16.1817 9.83826C16.2256 9.83826 16.4819 9.7036 16.5855 9.76061C16.6891 9.81761 16.6166 9.97292 16.6166 9.97292C16.6166 9.97292 16.9301 9.73723 17.0898 9.50614C17.2296 9.51911 17.2946 9.4104 17.397 9.4104C17.524 9.4104 17.7233 9.5838 17.7621 9.95397C17.788 10.1663 17.8268 10.288 17.788 10.6634C17.7699 10.8757 17.775 11.329 17.8392 11.554C17.8831 11.7327 17.9867 11.7146 17.9867 11.7146C17.9708 11.769 17.9393 11.8176 17.896 11.8543C17.8261 11.919 17.8184 12.09 17.8261 12.1547C17.8364 12.202 17.8494 12.2487 17.865 12.2945C17.865 12.2945 17.7822 12.3902 17.7614 12.4551C17.7433 12.5198 17.658 12.5638 17.5957 12.5638C17.5334 12.5638 17.5646 12.5585 17.4818 12.5638C17.3991 12.5691 17.3731 12.5819 17.3212 12.5638C17.2694 12.5457 17.2306 12.5249 17.2514 12.359C17.2695 12.1933 16.6119 11.8076 16.6119 11.8076L15.5367 11.4244L15.5391 11.4253Z" fill="#CCA849"/>
<path fill-rule="evenodd" clip-rule="evenodd" d="M14.3043 13.0615C14.3043 13.0615 14.5398 13.3748 15.5082 13.3748C15.969 13.3748 16.1296 13.3308 16.225 13.3048C16.3286 13.2789 16.7169 13.1263 17.1079 12.6654C17.46 12.2486 17.3823 12.0778 17.3823 12.0778L17.1775 12.0467L16.5119 12.1373L14.5424 12.9761L14.3035 13.0615H14.3043Z" fill="#585136"/>
<path fill-rule="evenodd" clip-rule="evenodd" d="M15.0266 13.1391C15.0266 13.1391 14.1877 13.3257 14.1877 12.7949C14.1877 12.2771 14.7055 11.7333 14.8351 11.6376C14.9697 11.5417 15.2908 11.4328 15.2908 11.4328H16.0649L16.2124 11.8238L16.1477 12.6677L15.0266 13.1389V13.1391Z" fill="#252211"/>
<path fill-rule="evenodd" clip-rule="evenodd" d="M15.8006 11.591C15.8006 11.591 15.6402 11.4434 15.2751 11.6422C14.9101 11.841 14.6148 12.2566 14.5967 12.6339C14.5787 12.9678 14.8712 13.2164 15.3269 13.2294C15.666 13.2422 15.8706 13.2034 15.9742 13.1782C15.9482 13.1471 15.8136 12.9789 15.8136 12.9789L15.8008 11.5912L15.8006 11.591Z" fill="#C3B378"/>
<path fill-rule="evenodd" clip-rule="evenodd" d="M15.6428 11.6736C15.6428 11.6736 15.604 11.6425 15.4892 11.7047C15.3934 11.7559 15.2537 11.8912 15.1449 11.9869C15.075 12.0439 15.0309 12.0697 14.9913 12.1137C14.8307 12.3054 14.6961 12.6187 14.7739 12.7741C14.8517 12.9294 15.1079 13.108 15.7604 12.9864L15.6409 11.6738L15.6428 11.6736Z" fill="#E6D89C"/>
<path fill-rule="evenodd" clip-rule="evenodd" d="M15.4305 11.9948C15.4305 11.9948 15.3269 12.1554 15.3269 12.4117C15.3269 12.6732 15.4745 13.09 16.0182 13.121C16.435 13.147 16.7145 12.5205 17.0175 12.2771C17.2479 12.0907 17.3877 12.0854 17.3877 12.0854C17.3877 12.0854 17.1521 11.8294 16.5231 11.4978C15.9017 11.1638 15.2052 11.1198 14.8271 11.6325C15.0058 11.6195 15.5832 11.4719 15.5832 11.4719L15.8655 11.5625L15.4305 11.995V11.9948Z" fill="#252211"/>
<path fill-rule="evenodd" clip-rule="evenodd" d="M16.2433 12.3339C16.2252 12.2952 16.2122 12.2433 16.2873 12.2305C16.3624 12.2177 16.396 12.2252 16.422 12.2817C16.4479 12.3382 16.4732 12.3853 16.4348 12.4087C16.396 12.4293 16.295 12.4087 16.2431 12.3336L16.2433 12.3339ZM16.1216 11.9688C16.1216 11.9688 16.0956 11.9869 16.1086 11.9508C16.1137 11.9069 16.1475 11.8291 16.2303 11.8473C16.3131 11.8656 16.2951 11.956 16.2815 11.982C16.2678 12.0079 16.1987 12.0518 16.1468 12.0332C16.1403 12.0315 16.1342 12.0283 16.1291 12.0238C16.124 12.0193 16.12 12.0137 16.1175 12.0074C16.1149 12.0011 16.1139 11.9943 16.1145 11.9876C16.1151 11.9808 16.1173 11.9743 16.1209 11.9685L16.1216 11.9688Z" fill="#6F674D"/>
<path fill-rule="evenodd" clip-rule="evenodd" d="M9.11353 12.1344C9.11353 12.1344 9.31833 12.288 9.55623 12.282C9.79175 12.2767 10.0947 12.0335 10.2345 11.8781C10.3172 11.7874 10.3881 11.6917 10.4649 11.6166C10.5297 11.5519 10.5736 11.5208 10.6046 11.4768C10.6487 11.4256 10.6953 11.3294 10.7186 11.2981C10.6616 11.3422 10.5789 11.42 10.4934 11.4717C10.4106 11.5229 10.2319 11.6192 10.1594 11.6451C10.0896 11.671 9.36458 12.0547 9.36458 12.0547L9.11353 12.1344Z" fill="#AC924C"/>
<path fill-rule="evenodd" clip-rule="evenodd" d="M9.42651 10.2214C9.42651 10.2214 9.54035 10.1437 9.76051 10.0944C9.97282 10.0432 10.4 10.0038 10.4 10.0038L10.7521 10.1574L10.8919 10.6882L10.6359 11.2398L10.3097 11.4446L9.93937 10.8491L9.42737 10.2224L9.42651 10.2214Z" fill="#9F8E57"/>
<path fill-rule="evenodd" clip-rule="evenodd" d="M8.96585 10.6952L8.84399 10.7861C8.84399 10.7861 8.87523 10.7291 8.901 10.5557C8.92677 10.3823 9.06159 9.96027 9.25837 9.7169C9.45515 9.47353 9.45003 9.4865 9.45003 9.4865C9.43193 9.48319 9.41332 9.48378 9.39546 9.48822C9.37759 9.49266 9.36088 9.50086 9.34644 9.51227C9.37238 9.45493 9.5381 9.25013 9.70381 9.14773C9.86953 9.04533 9.93421 9.01307 10.1076 9.09653C10.281 9.17998 10.325 9.22333 10.452 9.21821C10.579 9.21309 10.6875 9.07844 10.6875 9.07844C10.6875 9.07844 10.7135 9.16121 10.6177 9.35287C10.522 9.54453 10.144 9.93536 10.144 9.93536L9.35685 10.4738L8.96585 10.6957V10.6952Z" fill="#EAC970"/>
<path fill-rule="evenodd" clip-rule="evenodd" d="M9.54805 10.1567C9.54805 10.1567 10.1177 10.2344 10.2911 10.0739C10.2962 10.092 10.3171 10.092 10.3171 10.105C10.3157 10.1148 10.3111 10.1238 10.3041 10.1308C10.323 10.1277 10.342 10.126 10.3611 10.1256C10.3839 10.1324 10.4074 10.1368 10.4311 10.1386C10.4502 10.1382 10.4692 10.1364 10.4881 10.1333C10.4863 10.1462 10.4819 10.1586 10.4752 10.1697C10.4685 10.1808 10.4597 10.1905 10.4492 10.1982C10.4751 10.1982 10.5004 10.2033 10.5004 10.2239C10.5004 10.2446 10.5055 10.3069 10.4744 10.3199C10.4487 10.327 10.4213 10.3251 10.3968 10.3146C10.3988 10.3636 10.4121 10.4115 10.4357 10.4545C10.4869 10.5503 10.5961 10.6593 10.7429 10.6279C10.7429 10.6279 10.8204 10.8143 10.4942 11.2285C10.4504 11.2855 10.4036 11.3631 10.3468 11.4278C10.3243 11.4768 10.3071 11.528 10.2956 11.5806C10.2956 11.5806 10.8472 11.3683 11.005 10.8841C11.1656 10.3973 11.1967 9.91845 11.1656 9.47062C11.1603 9.34364 11.1397 9.25319 11.1086 9.18834C11.031 9.02774 10.8134 9.05368 10.7255 9.14431C10.5985 9.27128 10.3862 9.58701 10.0911 9.80444C9.79073 10.0219 9.77793 10.0604 9.54736 10.1567H9.54805Z" fill="#D7BC6B"/>
<path fill-rule="evenodd" clip-rule="evenodd" d="M8.86465 10.8558C8.86465 10.8558 8.75593 10.9204 8.69893 11.163C8.64192 11.4114 8.75013 11.7144 8.81276 11.8101C8.8754 11.9059 9.01756 12.1675 9.31248 12.1805C9.38547 12.1801 9.45766 12.1651 9.52479 12.1364C9.62774 12.0892 9.72431 12.0292 9.81219 11.9577C9.93917 11.862 10.0426 11.7792 10.0296 11.7714C9.99856 11.7584 9.24779 11.137 9.24779 11.137L8.96551 10.822L8.86447 10.8561L8.86465 10.8558Z" fill="#585136"/>
<path fill-rule="evenodd" clip-rule="evenodd" d="M9.57451 11.8861C9.57451 11.8861 9.72726 11.8733 9.81789 11.8163C9.90851 11.7593 9.28711 11.1432 9.28711 11.1432L9.33114 11.8088L9.57451 11.8861Z" fill="#453A25"/>
<path fill-rule="evenodd" clip-rule="evenodd" d="M8.91396 10.809C8.91396 10.809 8.8363 10.9566 8.8363 10.9956C8.82333 11.1224 8.86225 11.521 8.89331 11.6478C8.92437 11.7825 9.09265 11.987 9.31025 11.987C9.44473 11.987 9.63127 11.9042 9.63127 11.8835C9.63127 11.8576 9.43961 11.8323 9.3879 11.7359C9.35684 11.6847 9.34387 11.5574 9.3367 11.4287C9.33158 11.3459 9.33158 11.2553 9.36264 11.2239C9.43261 11.1463 9.44541 10.9235 9.44541 10.9235L9.6939 10.4619H9.36708L8.97608 10.7053L8.91396 10.809Z" fill="#84754B"/>
<path fill-rule="evenodd" clip-rule="evenodd" d="M8.81812 10.9515C8.81812 10.9515 9.07411 10.6124 9.30486 10.5346C9.5356 10.4567 9.63885 10.5035 9.63885 10.5035L9.50419 10.8479L9.31253 11.0602L9.32551 11.1689C9.32551 11.1689 9.29427 11.4563 9.48593 11.6557C9.67759 11.855 9.81993 11.8473 9.90287 11.8473C9.98581 11.8473 10.2239 11.7774 10.3456 11.49C10.4543 11.2208 10.5449 10.8756 10.3275 10.5294C10.115 10.185 9.73971 10.1717 9.66718 10.1717C9.59465 10.1717 9.02513 10.2002 8.81812 10.951V10.9515Z" fill="#252211"/>
<path fill-rule="evenodd" clip-rule="evenodd" d="M15.3916 12.1035C15.2958 12.0595 15.3865 11.7903 15.4822 11.7074C15.5779 11.6244 15.6996 11.5289 15.9121 11.5157C15.9896 11.5106 16.0647 11.5598 16.0519 11.6116C16.0338 11.7074 15.8991 11.842 15.7775 11.9378C15.6092 12.0699 15.5003 12.1526 15.3916 12.1035Z" fill="#F7F7E7"/>
<path fill-rule="evenodd" clip-rule="evenodd" d="M10.2136 10.6356C10.2835 10.6305 10.3742 10.6868 10.3923 10.7626C10.4103 10.8454 10.3482 11.0111 10.2136 11.0111C10.1049 11.0111 10.0479 10.8764 10.0479 10.8377C10.0491 10.8058 10.058 10.7747 10.0738 10.7471C10.0789 10.7392 10.0919 10.6486 10.2136 10.6356V10.6356Z" fill="#F8F6DE"/>
<path fill-rule="evenodd" clip-rule="evenodd" d="M9.20381 10.6952C9.20381 10.6952 9.02513 10.7779 8.94235 10.9512C8.88321 11.0791 8.86532 11.2222 8.89115 11.3608C8.90412 11.4254 8.96881 11.5859 9.01284 11.6429C9.05687 11.6999 9.11643 11.7388 9.16046 11.7335C9.2045 11.7282 9.29495 11.6118 9.29495 11.542C9.29495 11.4722 9.30024 11.177 9.38557 11.0164C9.46067 10.8559 9.20433 10.6953 9.20433 10.6953L9.20381 10.6952Z" fill="#D4C38B"/>
<path fill-rule="evenodd" clip-rule="evenodd" d="M9.22993 10.6822C9.19887 10.7003 9.14716 10.7262 9.15996 10.7599C9.17293 10.7909 9.28164 10.8111 9.32055 10.8868C9.36459 10.9645 9.36459 11.0473 9.35162 11.0862C9.38543 11.0701 9.41612 11.0482 9.44224 11.0213C9.49924 10.9566 9.56904 10.8687 9.62861 10.8687C9.66752 10.8687 9.70626 10.8868 9.74261 10.8868C9.79962 10.8868 9.85645 10.8687 9.8643 10.8092C9.8771 10.7315 9.75558 10.6616 9.68561 10.6745C9.69858 10.6233 9.71667 10.5477 9.65967 10.4958C9.60267 10.444 9.42415 10.5348 9.38524 10.5607C9.34632 10.5866 9.22993 10.6824 9.22993 10.6824V10.6822Z" fill="#E2D59D"/>
<path fill-rule="evenodd" clip-rule="evenodd" d="M13.3438 16.1217L13.727 16.0085L13.8357 16.0862C13.8357 16.0862 13.9132 16.2519 14.035 16.2726C13.9961 16.3553 13.8951 16.4262 13.9004 16.4849C13.9057 16.5436 13.9574 16.5885 13.9574 16.5885C13.9574 16.5885 13.613 17.158 14.2914 17.7319C14.1308 17.7966 13.9263 17.8855 13.8176 17.9367C13.8951 17.9548 14.0608 17.9879 14.1308 18.0507C14.2007 18.1135 14.2007 18.1335 14.2654 18.1724C14.3301 18.2113 14.3688 18.2631 14.356 18.2863C14.312 18.2603 14.1644 18.1828 14.1386 18.2552C14.1128 18.3276 13.4991 18.2992 13.4991 18.2992L12.4635 18.4986C12.4635 18.4986 12.5023 18.395 12.3935 18.2992C12.2667 18.1854 12.1114 18.3044 11.9457 18.1775C11.7283 18.0118 11.7204 17.8202 11.6506 17.7478C11.7204 17.7038 11.8629 17.6391 12.2021 17.5942C12.1891 17.5683 12.1451 17.4906 12.171 17.4208C12.2021 17.3302 12.3314 17.2732 12.2927 17.1648C12.3497 17.1518 12.3755 17.1518 12.518 16.9732C12.6526 16.7945 12.7354 16.7557 12.839 16.7428C12.9426 16.7298 13.0047 16.7428 13.1964 16.5641C13.3308 16.4373 13.287 16.3285 13.287 16.3285C13.287 16.3285 13.3749 16.3 13.344 16.1214L13.3438 16.1217Z" fill="#CBAC5A"/>
<path fill-rule="evenodd" clip-rule="evenodd" d="M12.2125 16.1792C12.2176 16.1533 12.2385 16.1403 12.3782 16.1533C12.518 16.1662 13.4034 16.0705 13.6442 16.0575C13.8876 16.0394 14.7445 16.0522 15.1615 16.1403C15.5784 16.2283 16.0003 16.3319 16.2048 16.3837C16.4096 16.4407 16.4741 16.4611 16.4662 16.4871C16.4611 16.513 16.415 16.5383 16.3886 16.5311C16.3628 16.526 15.6844 16.3188 15.4748 16.2751C15.2652 16.2314 14.5401 16.1145 14.1436 16.1215C13.7734 16.1268 13.6258 16.1164 13.3126 16.1526C12.9993 16.1915 12.4815 16.2432 12.3262 16.2225C12.1726 16.2045 12.2043 16.2045 12.2122 16.1785L12.2125 16.1792Z" fill="#D6BC6F"/>
<path fill-rule="evenodd" clip-rule="evenodd" d="M14.2965 18.2084C14.2965 18.2084 14.8273 18.4958 15.0189 18.8479C15.1587 19.1094 14.9362 19.2389 14.9362 19.2389C14.9362 19.2389 15.2365 19.2389 15.1976 19.4046C15.1795 19.5081 14.6798 19.7876 14.3458 19.9352C14.0067 20.0829 14.0197 20.0752 13.854 20.1009C13.6934 20.1269 13.2532 20.0497 13.1626 20.1786C13.072 20.3075 13.1114 20.4402 13.1367 20.4609C13.1626 20.479 13.3724 20.5049 13.3724 20.5049C13.3724 20.5049 13.3283 20.6266 12.8935 20.6396C12.4586 20.6525 12.3497 20.6834 12.3238 20.7302C12.2978 20.7741 12.4065 20.7483 12.6061 20.7814C12.8054 20.8125 13.0849 20.8326 13.0849 20.8326C13.0849 20.8326 12.9943 20.9102 12.7588 20.9724C12.4895 21.0422 12.0674 21.107 11.9406 21.1847C12.0053 21.2287 12.1012 21.2934 12.1454 21.2985C12.0367 21.3245 11.8838 21.3815 11.858 21.4021C11.8968 21.4281 11.9487 21.4591 11.9487 21.4591C11.9487 21.4591 11.7311 21.7206 11.6042 21.7854C11.4774 21.8503 10.7473 22.1892 10.4961 22.1245C9.86959 21.9588 9.79194 21.2727 9.63919 21.221C9.40879 21.1434 9.30008 21.2985 9.09545 21.1898C9.18607 21.1251 9.23539 21.0864 9.33114 21.0423C9.22754 20.9911 8.69165 20.6513 8.69165 20.6513C8.63561 20.5292 8.57341 20.41 8.50528 20.2941C8.40169 20.1155 8.24928 19.8772 8.13493 19.6675C7.88644 19.2067 7.87347 18.9943 7.64819 18.7329C7.68711 18.6817 7.82159 18.6889 7.82159 18.6889L9.70916 19.3102L13.0561 19.4072L13.9265 18.1646L14.2967 18.2086L14.2965 18.2084Z" fill="#DFC677"/>
<path fill-rule="evenodd" clip-rule="evenodd" d="M9.33862 20.1035C9.35882 20.126 9.38236 20.1452 9.40843 20.1605C9.47328 20.2045 9.56902 20.2564 9.63371 20.3339C9.65965 20.2952 9.72433 20.2252 9.83851 20.3339C9.95268 20.4426 10.0945 20.3651 10.1827 20.3909C10.2734 20.4221 10.2785 20.4349 10.2785 20.4349C10.2785 20.4349 10.3297 20.3909 10.4442 20.3443C10.5142 20.3184 10.5969 20.3003 10.6876 20.2745C10.7703 20.2564 10.861 20.2305 10.9233 20.2305C10.9803 20.2692 11.1847 20.4865 12.0055 20.1658C12.7796 19.8654 12.9581 19.8318 13.0877 19.8782C13.1006 19.8472 13.1136 19.7876 13.3129 19.7955C13.3129 19.7127 13.1472 19.4304 13.1472 19.4304L12.2333 19.1172H11.7334L10.2345 19.3917L9.40382 19.8656L9.33914 20.1045L9.33862 20.1035Z" fill="#C4A859"/>
<path fill-rule="evenodd" clip-rule="evenodd" d="M8.83887 19.578C8.83887 19.578 8.85696 19.7178 9.06415 19.8654C9.26895 20.0129 9.33329 20.1009 9.33329 20.1009C9.33329 20.1009 9.3722 20.0497 9.40326 19.9975C9.43432 19.9405 9.46026 19.8758 9.51198 19.8577C9.61557 19.8137 9.85109 19.8965 9.90297 19.8835C9.94701 19.8707 9.93403 19.7801 9.98063 19.7801C10.0893 19.7748 10.1591 19.8499 10.1981 19.8499C10.237 19.8499 10.3325 19.8448 10.3455 19.8241C10.3585 19.8035 10.3636 19.5884 10.5112 19.4848C10.6718 19.371 10.8686 19.4201 10.9208 19.4461C10.9208 19.4848 10.9259 19.5807 11.0295 19.5859C11.1331 19.591 11.1434 19.5729 11.2343 19.604C11.3253 19.635 11.4337 19.5988 11.4828 19.7514C11.5269 19.7386 11.6305 19.7256 11.6045 19.578C11.6557 19.5393 11.7004 19.5133 11.8093 19.3606C11.8353 19.3218 11.8791 19.2778 11.9129 19.2208C12.0035 19.2208 12.1123 19.2027 12.2571 19.3295C12.2131 19.3606 12.1872 19.3807 12.1744 19.4123C12.2123 19.4498 12.2469 19.4905 12.2778 19.534C12.3167 19.5852 12.3427 19.648 12.3918 19.661C12.5005 19.692 12.6792 19.648 12.8785 19.661C13.0702 19.6739 13.2306 19.7437 13.3006 19.7878C13.3265 19.775 13.3265 19.7697 13.3912 19.7826C13.4559 19.7956 13.5051 19.8007 13.4353 19.718C13.474 19.7361 13.518 19.775 13.5569 19.7361C13.5959 19.6971 13.6267 19.6403 13.7355 19.6273C13.8442 19.6144 13.8831 19.6325 13.9271 19.5186C13.9841 19.3788 13.7873 19.3788 13.7873 19.3788C13.7873 19.3788 13.878 19.2959 13.979 19.1872C14.1007 19.0734 14.2405 18.9257 14.2741 18.7445C14.3311 18.4105 14.0049 18.3666 14.0049 18.3666L12.423 18.8534L10.489 18.7574L8.83989 19.5782L8.83887 19.578Z" fill="#927D49"/>
<path fill-rule="evenodd" clip-rule="evenodd" d="M7.41743 15.0084C7.41743 15.0084 7.36623 15.0731 7.33466 15.2259C7.30309 15.3786 7.31657 15.3605 7.29063 15.4692C7.26469 15.5779 6.94605 16.6601 7.06552 17.0252C7.18499 17.3903 7.39183 17.5249 7.5212 17.82C7.54714 17.8847 7.5724 17.9236 7.58588 17.9806C7.62991 18.1721 7.59117 18.3197 7.64288 18.5114C7.66097 18.5761 7.70774 18.6511 7.77754 18.7288C7.93114 18.8892 8.18151 19.042 8.28954 19.1507C8.44212 19.3113 8.65972 19.6376 8.93671 19.6685C9.08434 19.6866 9.29408 19.6245 9.46748 19.521C9.62108 19.4251 9.71597 19.2906 9.87708 19.2138C9.99092 19.1568 10.1126 19.1362 10.2213 19.1102C10.4466 19.0662 10.6512 19.059 10.7729 19.0843C10.9593 19.1232 11.3994 19.2579 11.6433 19.2579C11.8339 19.2548 12.0234 19.2287 12.2077 19.1802C12.5779 19.0715 13.0257 18.885 13.321 18.8022C13.4944 18.751 13.6341 18.7375 13.7766 18.7064C14.02 18.6494 14.2245 18.5718 14.341 18.4242C14.2634 18.3335 14.1676 18.1938 13.6497 18.1989C13.0621 18.2118 12.3837 18.538 12.0497 18.5899C11.7157 18.6418 11.5708 18.6856 11.1979 18.551C10.8323 18.4149 10.8202 18.325 10.8202 18.325C10.8202 18.325 10.4364 18.0565 10.2758 17.3722C10.1152 16.6878 10.2758 16.1891 10.6927 15.7152C10.8014 15.5935 10.7755 15.4848 10.7755 15.4848C10.7755 15.4848 11.0499 15.1146 10.9748 14.768C10.892 14.4236 10.3613 14.4935 10.3613 14.4935L7.4176 15.0084H7.41743Z" fill="#6E6342"/>
<path fill-rule="evenodd" clip-rule="evenodd" d="M7.86027 16.1606C7.83745 16.2035 7.82671 16.2518 7.82921 16.3004C7.83433 16.3702 7.85515 16.4608 8.06473 16.6654C8.24342 16.8439 8.20451 17.0433 8.20451 17.0433C8.20451 17.0433 8.29445 17.0614 8.5385 16.9472C8.73016 16.8566 8.7945 17.0172 8.7945 17.0172C8.85029 16.9879 8.91076 16.9686 8.97319 16.9602C9.02975 16.955 9.08449 16.9375 9.13362 16.909C9.13362 16.909 9.3589 17.1394 9.55568 17.2481C9.73436 17.344 9.83796 17.4087 9.92602 17.344C10.0088 17.287 10.0088 17.1704 10.0035 17.1187C9.98297 17.071 9.95697 17.0258 9.92602 16.9841C9.86902 16.9013 9.77839 16.8054 9.77242 16.7281C9.75945 16.5495 9.90708 16.3371 9.87585 16.2854C9.84461 16.2336 9.72839 16.2207 9.44099 16.3243C9.14334 16.4226 7.85908 16.1611 7.85908 16.1611L7.86027 16.1606Z" fill="#39331F"/>
<path fill-rule="evenodd" clip-rule="evenodd" d="M8.53838 17.3179C8.53838 17.3179 8.39093 17.1781 8.44264 16.4997C8.50524 16.4988 8.56774 16.5049 8.629 16.5178C8.629 16.5178 8.70938 17.0435 8.53838 17.3179Z" fill="#292311"/>
<path fill-rule="evenodd" clip-rule="evenodd" d="M7.48745 14.4906C7.50802 14.4754 7.52711 14.4583 7.54445 14.4394C7.49325 14.5352 7.25688 14.9183 7.44854 15.5216C7.6402 16.1222 8.12165 16.57 8.71454 16.5909C9.30744 16.6117 9.61908 16.3215 9.97543 15.8867C10.1152 15.7133 10.2758 15.4957 10.4181 15.3482C10.6304 15.1177 10.7962 15.053 10.7962 14.8304C10.7962 14.3748 10.3301 14.1701 9.64399 13.9657C8.95791 13.7612 8.33908 13.7865 8.01805 13.9264C7.70488 14.079 7.57022 14.2396 7.48728 14.4908L7.48745 14.4906Z" fill="#252211"/>
<path fill-rule="evenodd" clip-rule="evenodd" d="M9.6907 17.5224L9.7419 17.4964C9.7419 17.4964 9.7547 17.2916 9.83764 17.2971C9.92041 17.31 9.95932 17.4189 9.95147 17.4577C9.94635 17.4964 9.9257 17.5613 9.84276 17.5534C9.73405 17.556 9.69019 17.5224 9.69019 17.5224H9.6907Z" fill="#3F3824"/>
<path fill-rule="evenodd" clip-rule="evenodd" d="M9.46021 16.6524C9.46021 16.6524 9.5114 16.6344 9.57404 16.6965C9.62524 16.6965 9.84847 16.6705 9.91844 16.7146C9.98842 16.7586 10.0091 16.7973 10.0091 16.7973C10.0091 16.7973 9.74761 16.8543 9.6051 16.7973C9.4602 16.7482 9.46021 16.6524 9.46021 16.6524V16.6524Z" fill="#2D2815"/>
<path fill-rule="evenodd" clip-rule="evenodd" d="M10.6124 16.6912C10.6124 16.6782 10.4726 16.5825 10.325 16.5512C10.299 16.5461 10.2937 16.5642 10.2738 16.5642C10.2608 16.5591 10.2557 16.5202 10.2557 16.5202L10.1717 16.5644C10.1717 16.5644 10.1587 16.5825 10.2028 16.6156C10.2415 16.6466 10.3064 16.6726 10.3245 16.7243C10.3425 16.776 10.3425 16.7941 10.3504 16.802C10.3555 16.8071 10.4461 16.802 10.4902 16.776C10.5342 16.7501 10.6171 16.7077 10.6119 16.6907L10.6124 16.6912Z" fill="#82764F"/>
<path fill-rule="evenodd" clip-rule="evenodd" d="M9.30493 17.2169C9.30493 17.2169 9.3307 17.0383 9.50427 17.0305C9.68279 17.0175 9.71658 17.1909 9.71658 17.1909L9.61298 17.2945C9.61298 17.292 9.53533 17.1832 9.30578 17.2169H9.30493Z" fill="#2D2816"/>
<path fill-rule="evenodd" clip-rule="evenodd" d="M10.4312 16.4478C10.4312 16.4478 10.3353 16.5514 10.1231 16.5825C10.105 16.5565 10.0661 16.5048 10.1231 16.422C10.1801 16.3393 10.2448 16.3133 10.3095 16.3391C10.338 16.3437 10.3646 16.3564 10.3862 16.3757C10.4078 16.3949 10.4234 16.42 10.4312 16.4478V16.4478Z" fill="#574F35"/>
<path fill-rule="evenodd" clip-rule="evenodd" d="M10.8219 16.5748C10.8272 16.5489 10.8091 16.5437 10.8219 16.5308C10.8347 16.5178 10.9049 16.492 10.9179 16.5048C10.923 16.5101 10.9179 16.5308 10.9179 16.556C10.9179 16.5813 10.9179 16.6072 10.9049 16.6258C10.8868 16.6518 10.8351 16.6647 10.8091 16.6571C10.7832 16.6494 10.7781 16.613 10.7781 16.6059C10.7909 16.6007 10.8219 16.5878 10.8219 16.5748ZM11.264 16.2953C11.264 16.2823 11.308 16.2563 11.3339 16.2563C11.3727 16.2563 11.3727 16.2874 11.378 16.2953C11.3908 16.3004 11.3908 16.29 11.4037 16.3133C11.4167 16.3367 11.435 16.378 11.4218 16.404C11.4087 16.4299 11.3571 16.4478 11.3443 16.4427C11.3263 16.4297 11.2693 16.3133 11.264 16.2953V16.2953Z" fill="#82764F"/>
<path fill-rule="evenodd" clip-rule="evenodd" d="M10.3743 16.6344C10.3743 16.6344 10.4313 16.6472 10.5089 16.712C10.483 16.7301 10.4441 16.7508 10.4441 16.7508C10.4441 16.7508 10.439 16.6912 10.3743 16.6342V16.6344Z" fill="#6E6342"/>
<path fill-rule="evenodd" clip-rule="evenodd" d="M10.2474 16.0647C10.2344 16.0519 10.2861 16.0208 10.3172 16.0259C10.3483 16.0311 10.3612 16.0519 10.3949 16.057C10.4285 16.0621 10.4338 16.044 10.4461 16.0311C10.4584 16.0181 10.5031 16.0259 10.5107 16.0311C10.5155 16.0368 10.5199 16.0428 10.5237 16.0492C10.5243 16.0393 10.5268 16.0297 10.5313 16.0209C10.5357 16.0121 10.5419 16.0043 10.5495 15.998C10.5594 15.9907 10.5709 15.9857 10.583 15.9835C10.5951 15.9812 10.6076 15.9817 10.6195 15.985C10.6246 16.0031 10.6505 16.0678 10.6454 16.0807C10.6403 16.0937 10.5626 16.112 10.5495 16.0988C10.5625 16.1301 10.6195 16.1947 10.6271 16.2075C10.6348 16.2203 10.5701 16.2516 10.5444 16.2464C10.5082 16.2439 10.2855 16.1144 10.2467 16.0652L10.2474 16.0647ZM10.5865 15.6349C10.5817 15.6219 10.5726 15.6109 10.5606 15.6039C10.5425 15.5988 10.4829 15.6039 10.4829 15.6349C10.4829 15.666 10.5341 15.8397 10.5916 15.9302C10.6565 16.0208 10.7004 16.0957 10.7444 16.1166C10.7582 16.1229 10.7739 16.1237 10.7883 16.1189C10.8027 16.1141 10.8148 16.104 10.822 16.0906C10.8272 16.0777 10.8401 15.9819 10.835 15.7566C10.8299 15.5314 10.822 15.3139 10.8091 15.3009C10.7961 15.288 10.7444 15.2881 10.7263 15.3139C10.7082 15.3397 10.5916 15.5962 10.5864 15.6349H10.5865Z" fill="#585136"/>
<path fill-rule="evenodd" clip-rule="evenodd" d="M10.356 16.9605C10.356 16.9605 10.2654 16.9035 10.1773 16.9424C10.0946 16.9813 10.0997 17.1341 10.0997 17.1341C10.1183 17.1414 10.1384 17.144 10.1583 17.1417C10.1782 17.1395 10.1972 17.1324 10.2137 17.1211C10.2707 17.0824 10.343 17.0177 10.356 16.9607V16.9605Z" fill="#574F35"/>
<path fill-rule="evenodd" clip-rule="evenodd" d="M10.5268 17.1651C10.5217 17.1139 10.4756 17.1139 10.4756 17.0875C10.4788 17.0748 10.4861 17.0636 10.4964 17.0557C10.5067 17.0477 10.5194 17.0434 10.5324 17.0435C10.5584 17.0435 10.5836 17.0745 10.6154 17.0947C10.6464 17.1128 10.693 17.1459 10.6981 17.1853C10.7033 17.2247 10.6469 17.3327 10.5843 17.3327C10.5217 17.3327 10.5403 17.2162 10.5273 17.1645L10.5268 17.1651ZM11.0265 17.0952C11.0265 17.0952 10.9229 17.1262 10.9306 17.0952C10.9383 17.0641 10.9618 17.0564 10.9954 17.0564C11.0125 17.0386 11.0355 17.0275 11.0601 17.0252C11.0742 17.0245 11.088 17.0291 11.0989 17.0382C11.0989 17.0382 11.1688 17.0071 11.1895 17.0252C11.2101 17.0433 11.1948 17.0433 11.2076 17.0641C11.2239 17.0872 11.2346 17.1138 11.2388 17.1418C11.2388 17.1624 11.1612 17.2064 11.0989 17.1988C11.0265 17.1832 11.0393 17.1081 11.0265 17.0952V17.0952ZM11.6296 16.9786C11.6296 16.9786 11.6607 16.9967 11.6349 17.0175C11.6168 17.0356 11.5262 17.0687 11.4484 17.0745C11.3707 17.0745 11.3009 17.0873 11.3009 17.0616C11.3009 17.0358 11.3656 16.9839 11.4044 16.9709C11.4121 16.9612 11.422 16.9533 11.4332 16.948C11.4445 16.9426 11.4568 16.9398 11.4692 16.9399C11.5003 16.9399 11.6218 16.9269 11.6556 16.9218C11.6866 16.9165 11.7126 16.9346 11.6943 16.9605C11.6866 16.9786 11.6296 16.9786 11.6296 16.9786V16.9786ZM11.8083 16.1792C11.8083 16.1792 11.7694 16.262 11.7255 16.262C11.6815 16.2569 11.6815 16.2439 11.6815 16.2309C11.6815 16.2128 11.7255 16.1662 11.7203 16.1533C11.7075 16.1533 11.6762 16.1533 11.6815 16.1222C11.6815 16.0963 11.7255 16.0652 11.7643 16.071C11.7936 16.0469 11.83 16.0333 11.8679 16.0323C11.9119 16.0323 11.9507 16.0451 11.9507 16.071C11.9507 16.0969 11.8995 16.1538 11.8807 16.1669C11.86 16.1876 11.8341 16.201 11.8083 16.1797V16.1792ZM11.218 17.7092C11.218 17.7092 11.1668 17.7145 11.1668 17.7403C11.1668 17.7533 11.1796 17.7533 11.1978 17.7456C11.2084 17.745 11.2188 17.7432 11.2289 17.7403C11.234 17.7456 11.234 17.7714 11.2729 17.7714C11.3049 17.767 11.3357 17.7565 11.3636 17.7403C11.3946 17.7275 11.4206 17.7144 11.4206 17.6891C11.4076 17.6451 11.3817 17.6242 11.3429 17.6242C11.3231 17.623 11.3033 17.6275 11.2859 17.6372C11.2859 17.6372 11.2729 17.6113 11.2289 17.6372C11.1849 17.6632 11.19 17.6632 11.203 17.6761C11.2262 17.6968 11.2185 17.7103 11.2185 17.7103L11.218 17.7092ZM10.9255 17.9785C10.9255 17.9656 10.9901 17.9396 11.0082 17.9475C11.0263 17.9526 11.078 18.0509 11.078 18.0613C11.078 18.0743 11.0134 18.1053 10.9874 18.1053C10.9615 18.1053 10.9176 18.0613 10.9176 18.0541C10.9176 18.049 10.9487 18.0414 10.9487 18.0361C10.9564 18.0233 10.9255 17.992 10.9255 17.9791V17.9785ZM10.7207 17.6005C10.7336 17.5954 10.7336 17.5824 10.7517 17.5695C10.7574 17.5657 10.7638 17.5633 10.7706 17.5624C10.7773 17.5615 10.7842 17.5622 10.7906 17.5643C10.7952 17.5562 10.8015 17.5492 10.8091 17.5438C10.8168 17.5384 10.8255 17.5347 10.8347 17.5331C10.8657 17.528 10.8917 17.5331 10.8859 17.5461C10.8859 17.585 10.9118 17.6108 10.9118 17.6418C10.9118 17.6729 10.8937 17.7118 10.829 17.7377C10.7644 17.7558 10.6763 17.7558 10.6633 17.7507C10.6503 17.7456 10.6374 17.6937 10.6503 17.6678C10.6633 17.6418 10.6995 17.6135 10.7203 17.6005H10.7207Z" fill="#82764F"/>
<path fill-rule="evenodd" clip-rule="evenodd" d="M10.8031 17.6181C10.8031 17.6181 10.7591 17.644 10.7591 17.657C10.7552 17.6695 10.7535 17.6826 10.754 17.6957C10.754 17.7034 10.811 17.6906 10.8187 17.6828C10.8212 17.6776 10.8031 17.6316 10.8031 17.6181Z" fill="#6E6342"/>
<path fill-rule="evenodd" clip-rule="evenodd" d="M10.4182 17.4964C10.444 17.5017 10.488 17.4964 10.5217 17.5094C10.5476 17.5223 10.5657 17.5483 10.5397 17.5793C10.5138 17.6104 10.4885 17.657 10.431 17.6491C10.3663 17.644 10.3042 17.6104 10.3042 17.5845C10.3031 17.5681 10.3053 17.5516 10.3107 17.536C10.316 17.5205 10.3244 17.5061 10.3353 17.4938C10.3612 17.4732 10.374 17.4862 10.4181 17.4964H10.4182Z" fill="#585136"/>
<path fill-rule="evenodd" clip-rule="evenodd" d="M10.387 17.5224C10.387 17.5224 10.3042 17.587 10.2834 17.6183C10.2575 17.6493 10.1307 17.8098 10.0919 17.8434C10.1048 17.8207 10.1195 17.799 10.1358 17.7787C10.0846 17.8114 10.0462 17.8608 10.0271 17.9185C9.99603 18.0144 10.2007 18.0661 10.3351 18.105C10.4696 18.1439 10.5217 18.1562 10.5217 18.1562C10.4722 18.0818 10.4297 18.003 10.3947 17.9207C10.3435 17.799 10.317 17.786 10.3507 17.729C10.3766 17.672 10.4155 17.6333 10.4155 17.5893C10.4 17.5483 10.387 17.5224 10.387 17.5224Z" fill="#574F35"/>
<path fill-rule="evenodd" clip-rule="evenodd" d="M7.43564 17.727C7.45449 17.7304 7.4738 17.7304 7.49265 17.727C7.53139 17.7217 7.93536 17.5734 8.35741 17.6C8.67337 17.6191 8.98654 17.6706 9.29199 17.7536C9.82276 17.8934 10.4829 18.1704 10.9101 18.3284C11.0239 18.3723 11.1354 18.4501 11.2173 18.481C11.5436 18.608 11.5564 18.608 11.748 18.6416C11.9733 18.6726 12.2037 18.5975 12.4445 18.5458C12.7396 18.481 13.2445 18.4499 13.6872 18.3852C13.8303 18.3654 13.9715 18.3334 14.1092 18.2895C14.1092 18.2895 13.7571 18.6416 12.913 18.7684C12.5718 18.8202 12.2251 18.8246 11.8827 18.7814C11.6134 18.7554 11.4349 18.7165 11.3002 18.6778C11.1475 18.6337 10.8341 18.5172 10.4484 18.4218C10.1791 18.3518 9.87874 18.3001 9.5345 18.2354C8.68526 18.0799 7.76367 17.9014 7.4353 17.728L7.43564 17.727Z" fill="#252211"/>
<path fill-rule="evenodd" clip-rule="evenodd" d="M6.48286 16.127C6.27806 16.3004 6.06081 16.4661 5.84867 16.6265L5.20918 17.1179C4.99175 17.2783 4.77944 17.444 4.56184 17.6046C4.34424 17.7652 4.12698 17.9178 3.89624 18.0654C4.10104 17.892 4.3183 17.7314 4.53573 17.5736C4.75316 17.4157 4.97861 17.2609 5.18836 17.1008L5.82785 16.6088C6.04784 16.4483 6.26014 16.2826 6.48286 16.1273V16.127ZM5.35151 17.9393C5.35151 17.9393 5.58191 17.7476 5.86932 17.4785C6.22652 17.1447 6.66411 16.7173 6.80389 16.6398L5.35134 17.9395L5.35151 17.9393Z" fill="#CFB66C"/>
<path fill-rule="evenodd" clip-rule="evenodd" d="M5.35132 17.9391C5.46532 17.8253 5.58701 17.714 5.70869 17.6051L5.89506 17.4447C5.95207 17.3935 6.01692 17.336 6.07375 17.279C6.18759 17.1651 6.29903 17.0433 6.41287 16.9269C6.46929 16.8683 6.52894 16.813 6.59155 16.7612C6.62286 16.7335 6.65762 16.7099 6.69498 16.6912C6.72621 16.6731 6.75983 16.64 6.80369 16.6342C6.77792 16.6731 6.74686 16.6912 6.72092 16.7248C6.68986 16.7508 6.66392 16.7818 6.63815 16.8076C6.58114 16.8646 6.51646 16.9163 6.45946 16.9682C6.33777 17.0718 6.21097 17.173 6.08928 17.2814C5.9676 17.3897 5.85376 17.5066 5.7319 17.6153C5.59998 17.7268 5.47829 17.8355 5.35132 17.9396V17.9391ZM6.89961 16.9035C6.89961 16.9035 6.05566 17.7295 5.88209 17.864L6.89961 16.9035Z" fill="#CFB66C"/>
<path fill-rule="evenodd" clip-rule="evenodd" d="M6.89959 16.9035C6.82367 16.9914 6.74227 17.0744 6.65588 17.152L6.39988 17.3954C6.31711 17.4782 6.23929 17.5611 6.15139 17.6439C6.06077 17.7215 5.97799 17.7975 5.88208 17.8692L6.13057 17.6258C6.21351 17.543 6.30414 17.4732 6.3922 17.3903L6.64069 17.1469C6.72603 17.0616 6.80897 16.9786 6.89959 16.9035V16.9035ZM6.93834 17.3513C6.86054 17.5685 6.76888 17.7804 6.6639 17.9857C6.44647 18.4207 6.12033 18.9643 5.97782 19.2415L6.93834 17.3513Z" fill="#CFB66C"/>
<path fill-rule="evenodd" clip-rule="evenodd" d="M6.93842 17.3515C6.93842 17.4472 6.91248 17.5302 6.88142 17.613C6.85114 17.6958 6.81662 17.777 6.77799 17.8563C6.73908 17.934 6.69505 18.0169 6.65102 18.092C6.60699 18.1671 6.55527 18.2446 6.51636 18.3224L6.2549 18.7832C6.16428 18.9368 6.07621 19.0913 5.98047 19.2389C6.04515 19.0732 6.13322 18.9179 6.21616 18.7651C6.30678 18.6115 6.38956 18.4579 6.47216 18.299C6.51249 18.2199 6.54877 18.1387 6.58087 18.0558C6.61962 17.9729 6.65836 17.8952 6.68959 17.8202C6.72833 17.7374 6.75939 17.6596 6.7983 17.5846C6.84216 17.5042 6.87852 17.4266 6.93808 17.3515H6.93842Z" fill="#CFB66C"/>
<path fill-rule="evenodd" clip-rule="evenodd" d="M7.86013 19.4744C7.86013 19.4744 7.60413 19.8135 7.62973 20.2433C7.69953 20.0182 7.7876 19.6738 7.86013 19.4744ZM8.1035 19.8144C8.1035 19.8144 8.01288 20.736 7.93778 21.1891C8.04394 20.6653 8.06459 20.7094 8.1035 19.8144ZM9.79924 21.2436C9.79924 21.2436 9.4161 22.37 9.40825 22.683C9.49119 22.3611 9.65162 21.7035 9.79924 21.2427V21.2436Z" fill="#DEC270"/>
<path fill-rule="evenodd" clip-rule="evenodd" d="M10.6951 19.4048C10.6951 19.4048 11.3165 20.43 11.7826 21.305C11.6564 20.8647 11.3663 20.0571 10.6951 19.4048Z" fill="#CBAF59"/>
<path fill-rule="evenodd" clip-rule="evenodd" d="M12.3652 20.914C12.7064 21.5171 13.0141 22.1385 13.2868 22.7755C13.2351 22.3353 13.0952 21.582 12.3652 20.914Z" fill="#E3C677"/>
<path fill-rule="evenodd" clip-rule="evenodd" d="M17.2739 22.4256C17.3773 22.3609 17.582 22.0087 17.7606 21.9208C17.9392 21.8301 18.0738 21.812 18.2344 21.6334C18.3948 21.4468 18.4392 21.333 18.791 21.1855C19.283 20.9731 18.9446 20.6986 18.9446 20.6986C18.9988 20.6454 19.0567 20.5961 19.118 20.5512C19.2449 20.4554 19.3924 20.3389 19.3796 20.1342C19.3615 19.79 19.2968 19.2903 19.0145 19.0003C19.289 18.9433 19.8144 18.9046 20.1409 18.8218C20.5188 18.7259 20.6924 18.5912 20.6924 18.5912C20.6924 18.5912 20.4749 18.2211 20.827 17.8483C21.1791 17.4756 21.4665 17.2529 21.6788 16.8359C21.4354 16.8049 21.0644 16.6755 20.1176 17.0353C20.1687 17.0593 20.218 17.087 20.2652 17.118C20.2652 17.118 19.6827 17.2786 19.4704 17.4573C19.1 17.7705 19.0534 18.0268 18.6522 18.2185C18.251 18.4101 17.847 18.3583 17.5132 18.5136C17.1794 18.6689 17.13 18.801 17.0082 18.858C17.0341 18.889 17.0031 18.9408 17.0522 18.9848C17.0211 19.0288 16.8399 19.3239 16.6561 19.3239C16.6742 19.3939 16.8295 19.4456 16.8295 19.4456C16.8295 19.4456 16.7157 19.5285 16.4257 19.5492C16.5731 19.7028 16.7131 19.8702 17.0988 20.1136C17.0677 20.1783 16.9382 20.2742 16.9901 20.3959C17.0471 20.5175 17.1949 20.6833 17.7849 20.8179C17.4845 20.8307 17.1326 20.9007 16.6585 20.836C16.1847 20.779 16.1071 20.7454 15.8145 20.8179C15.8456 20.849 15.9284 20.849 16.0009 20.9317C15.9232 20.9369 15.4365 20.8747 15.2708 21.0923C15.0974 21.3175 15.0223 21.6878 15.0353 21.9363C14.9446 21.9803 14.8566 22.058 14.9006 22.2186C14.9446 22.3792 15.175 22.4309 15.3227 22.5317C15.4701 22.6405 15.4831 22.6792 15.623 22.6534C15.7705 22.6224 15.9879 22.4749 16.1149 22.4749C16.2419 22.4749 16.3323 22.5707 16.3323 22.5707C16.3323 22.5707 16.6767 22.4049 16.7104 22.436C16.7414 22.4671 16.7155 22.6664 16.7491 22.6975C16.7832 22.7208 17.1712 22.4904 17.2748 22.4256H17.2739Z" fill="#ECD592"/>
<path fill-rule="evenodd" clip-rule="evenodd" d="M24.8002 12.0648C23.1821 7.88617 19.182 7.11203 19.182 7.11203H7.7697L7.81373 11.3683H10.0865V20.8725H7.76953V25.1211H18.8661C21.5405 25.1211 23.6842 22.4336 23.6842 22.4336C27.1172 17.5613 24.8 12.0648 24.8 12.0648H24.8002ZM18.9257 19.5702C18.9257 19.5702 18.0553 20.826 17.1082 20.826H15.2138L15.169 11.3787H17.6001C17.6001 11.3787 18.7265 11.6142 19.5134 13.8433C19.5134 13.8433 20.5567 17.0348 18.9257 19.5702V19.5702Z" fill="white" fill-opacity="0.8"/>
</svg>
