<svg width="32" height="32" viewBox="0 0 32 32" fill="none" xmlns="http://www.w3.org/2000/svg">
<circle cx="16" cy="16" r="16" fill="url(#paint0_linear_767_1735)"/>
<path d="M8.9978 14.0135C9.20729 14.4598 9.72644 15.3433 9.72644 15.3433L15.6922 5.47925L9.86306 9.54143C9.51696 9.76913 9.23461 10.0879 9.03423 10.4522C8.49686 11.5725 8.48775 12.875 8.9978 14.0135Z" fill="white"/>
<path d="M6.62986 17.2557C6.76648 19.1684 7.71372 20.9263 9.23476 22.083L15.6741 26.5732C15.6741 26.5732 11.6484 20.7623 8.24199 14.9878C7.89588 14.3776 7.66818 13.7127 7.55888 13.0205C7.51334 12.7108 7.51334 12.392 7.55888 12.0732C7.4678 12.2372 7.29475 12.5742 7.29475 12.5742C6.94864 13.2755 6.71184 14.0315 6.60254 14.8057C6.54789 15.6163 6.54789 16.4451 6.62986 17.2557Z" fill="white"/>
<path d="M23.0616 18.039C22.8521 17.5927 22.333 16.7092 22.333 16.7092L16.3672 26.5732L22.1872 22.511C22.5333 22.2833 22.8157 21.9646 23.0161 21.6002C23.5625 20.4708 23.5716 19.1684 23.0616 18.039Z" fill="white"/>
<path d="M25.4291 14.7875C25.2924 12.8748 24.3452 11.117 22.8242 9.96023L16.3848 5.46997C16.3848 5.46997 20.4105 11.2809 23.8169 17.0554C24.163 17.6656 24.3907 18.3305 24.5 19.0227C24.5456 19.3324 24.5456 19.6512 24.5 19.97C24.5911 19.806 24.7642 19.469 24.7642 19.469C25.1103 18.7677 25.3471 18.0117 25.4564 17.2376C25.511 16.4269 25.511 15.6072 25.4291 14.7875Z" fill="white"/>
<path d="M9.03438 10.452C9.23476 10.0877 9.51711 9.76889 9.86322 9.54119L15.6833 5.479L9.71749 15.343C9.71749 15.343 9.19833 14.4595 8.98884 14.0132C8.47879 12.8747 8.49701 11.5723 9.03438 10.452ZM6.62986 17.2557C6.76648 19.1684 7.71372 20.9262 9.23476 22.083L15.6741 26.5732C15.6741 26.5732 11.6484 20.7623 8.24199 14.9878C7.89588 14.3776 7.66818 13.7127 7.55888 13.0205C7.51334 12.7108 7.51334 12.392 7.55888 12.0732C7.4678 12.2372 7.29475 12.5742 7.29475 12.5742C6.94864 13.2755 6.71184 14.0315 6.60254 14.8056C6.54789 15.6163 6.54789 16.4451 6.62986 17.2557ZM23.0517 18.039C22.8422 17.5927 22.323 16.7092 22.323 16.7092L16.3664 26.5732L22.1864 22.511C22.5325 22.2833 22.8148 21.9646 23.0152 21.6002C23.5526 20.4799 23.5708 19.1775 23.0517 18.039ZM25.4197 14.7965C25.2831 12.8838 24.3359 11.126 22.8148 9.96927L16.3846 5.479C16.3846 5.479 20.4103 11.2899 23.8167 17.0644C24.1628 17.6747 24.3905 18.3396 24.4998 19.0318C24.5454 19.3414 24.5454 19.6602 24.4998 19.979C24.5909 19.8151 24.764 19.4781 24.764 19.4781C25.1101 18.7767 25.3469 18.0208 25.4562 17.2466C25.5199 16.4269 25.5199 15.6071 25.438 14.7874L25.4197 14.7965Z" fill="white"/>
<defs>
<linearGradient id="paint0_linear_767_1735" x1="16" y1="0" x2="16" y2="32" gradientUnits="userSpaceOnUse">
<stop stop-color="#8398F7"/>
<stop offset="1" stop-color="#6AB0EF"/>
</linearGradient>
</defs>
</svg>
