<svg width="32" height="32" viewBox="0 0 32 32" fill="none" xmlns="http://www.w3.org/2000/svg">
<circle cx="16" cy="16" r="16" fill="#345D9D"/>
<path d="M15.5545 17.6226L13.8886 23.24H22.799C22.8581 23.2379 22.9169 23.2475 22.9722 23.2682C23.0275 23.2889 23.0782 23.3203 23.1214 23.3606C23.1646 23.4009 23.1994 23.4493 23.2238 23.503C23.2483 23.5568 23.2619 23.6149 23.2639 23.6739V23.8211L22.4891 26.4942C22.4549 26.6206 22.3788 26.7317 22.2732 26.8091C22.1676 26.8866 22.0388 26.9258 21.908 26.9204H8.27119L10.5569 19.1334L8 19.9083L8.58111 18.1262L11.138 17.3514L14.3535 6.42643C14.3889 6.30072 14.4653 6.19048 14.5707 6.11325C14.676 6.03602 14.8041 5.99625 14.9346 6.00028H18.3826C18.4416 5.99821 18.5004 6.00779 18.5558 6.02848C18.6111 6.04917 18.6618 6.08057 18.7049 6.12086C18.7481 6.16116 18.7829 6.20958 18.8074 6.26334C18.8318 6.3171 18.8455 6.37515 18.8475 6.43418V6.58139L16.1356 15.8017L18.6925 15.0269L18.1501 16.8865L15.5545 17.6226Z" fill="white"/>
</svg>
