<svg width="32" height="32" viewBox="0 0 32 32" fill="none" xmlns="http://www.w3.org/2000/svg">
<path d="M20.8432 6.93668C20.28 7.50273 19.7639 8.11623 19.3052 8.7704L19.1602 8.72295C18.3237 8.4484 17.4569 8.27892 16.5834 8.2213C16.3203 8.20096 15.3388 8.20096 15.0184 8.2213C14.0504 8.2857 13.3084 8.43145 12.4652 8.72634C12.4315 8.73989 12.4012 8.75006 12.3708 8.76023C11.8952 8.10945 11.3657 7.49934 10.7822 6.94007C13.5816 5.49953 16.8566 5.32666 19.7875 6.46215C20.1012 6.58078 20.4081 6.71975 20.7083 6.86889L20.8432 6.93668Z" fill="#F00500"/>
<path d="M26.064 19.7931C25.639 21.0099 25.0016 22.1386 24.1752 23.1216C23.7266 23.6503 23.2308 24.135 22.698 24.5757C21.45 25.5857 19.993 26.3077 18.4381 26.6873C16.718 27.1042 14.9237 27.1042 13.2036 26.6873C11.6454 26.3077 10.1917 25.5857 8.94379 24.5757C8.41089 24.135 7.91509 23.6503 7.46651 23.1216C5.08871 20.2981 4.36694 16.4205 5.57776 12.9259C5.80711 12.2785 6.0938 11.6549 6.43782 11.0617C6.59634 10.7906 6.79196 10.4855 6.8864 10.3601C7.21019 11.76 7.60817 12.9903 7.75657 13.4344C7.74645 13.4581 7.73296 13.4852 7.71947 13.5089C6.93362 15.1088 6.50865 16.651 6.40747 18.2915C6.40747 18.3119 6.40409 18.3356 6.40409 18.3559C6.37711 18.8474 6.3906 19.0813 6.47155 19.3897C6.7245 20.3557 7.50362 21.42 8.72456 22.464C10.7246 24.1723 13.4363 25.4061 15.4903 25.5485C17.632 25.6942 20.7923 24.4367 22.8969 22.5996C23.2275 22.3047 23.5378 21.9929 23.8278 21.6607C24.0369 21.4167 24.3472 20.9964 24.3236 20.9964C24.3169 20.9964 24.3236 20.9896 24.3371 20.9828C24.3472 20.976 24.3574 20.9658 24.3506 20.9591C24.3472 20.9557 24.354 20.9455 24.3641 20.9421C24.3742 20.9387 24.381 20.932 24.3776 20.9252C24.3742 20.9184 24.3776 20.9116 24.3911 20.9082C24.4012 20.9048 24.4046 20.8947 24.4012 20.8879C24.3978 20.8811 24.4012 20.8743 24.4079 20.8743C24.4147 20.8743 24.4214 20.8642 24.4214 20.8574C24.4214 20.8506 24.4282 20.8404 24.4349 20.8404C24.4417 20.8404 24.4484 20.8337 24.4484 20.8269C24.4585 20.7998 24.4754 20.7726 24.4923 20.7489C24.5429 20.671 24.7452 20.3083 24.7722 20.2473C24.9645 19.81 25.0859 19.4202 25.1432 19.0304C25.1702 18.844 25.1871 18.5017 25.1736 18.4203C25.1702 18.4068 25.1702 18.383 25.1668 18.3458C25.1601 18.278 25.1567 18.1763 25.15 18.0746C25.1432 17.9221 25.1297 17.7085 25.1196 17.6035C24.9746 16.0646 24.5833 14.8071 23.8413 13.475C23.811 13.4242 23.784 13.3734 23.7671 13.3327C23.7604 13.3225 23.757 13.3123 23.7536 13.3056C23.8582 12.9903 24.2865 11.6718 24.6272 10.1635L24.6339 10.1703L24.6845 10.2381C24.7722 10.3567 25.0049 10.7092 25.1095 10.8787C25.585 11.6583 25.956 12.4955 26.2191 13.37C26.8296 15.4749 26.779 17.7187 26.064 19.7931Z" fill="#F00500"/>
<path d="M21.686 15.7426C21.6759 15.7968 21.5174 15.9595 21.3589 16.0782C20.8934 16.4205 20.0604 16.7391 19.2138 16.8917C18.7315 16.9798 18.2492 16.9933 18.1042 16.9222C18.0097 16.8747 17.9962 16.8374 18.03 16.7154C18.1008 16.4612 18.3301 16.1833 18.6876 15.9223C18.8698 15.7901 19.6084 15.3393 19.9524 15.1495C20.5191 14.8376 20.9778 14.6512 21.2881 14.6071C21.3859 14.5936 21.5039 14.5902 21.541 14.6071C21.6017 14.6309 21.6692 14.8105 21.6962 15.0274C21.7096 15.1427 21.7029 15.6511 21.686 15.7426Z" fill="black"/>
<path d="M13.7401 16.8645C13.7199 16.9052 13.6187 16.9493 13.504 16.9662C13.3893 16.9832 13.0386 16.973 12.8396 16.9493C12.1245 16.8544 11.3657 16.634 10.8125 16.3629C10.5022 16.2104 10.2796 16.0578 10.1144 15.8917L10.0199 15.7934L10.0098 15.6646C9.99296 15.4409 9.99633 15.0884 10.0233 14.963C10.0402 14.8579 10.0773 14.7563 10.1279 14.6647C10.1548 14.6308 10.1548 14.6308 10.2763 14.6308C10.4247 14.6308 10.5495 14.6546 10.7518 14.719C11.1667 14.8478 11.7839 15.1596 12.536 15.6138C13.1566 15.9866 13.3893 16.1697 13.5681 16.4205C13.6895 16.5764 13.7705 16.7967 13.7401 16.8645Z" fill="black"/>
<path d="M18.5156 21.5827C18.5156 21.5929 18.4751 21.7556 18.4245 21.9488C18.3739 22.142 18.3334 22.2979 18.3334 22.3047C18.2963 22.3081 18.2626 22.3115 18.2255 22.3081H18.1176L17.9692 22.6606C17.8882 22.8538 17.814 23.0334 17.8039 23.0605L17.7837 23.108L17.7128 22.9927L17.642 22.8775V21.9386L17.615 21.9454C17.5577 21.9589 17.1496 22.0132 16.9708 22.0301C16.2322 22.1047 15.4902 22.0877 14.7549 21.9827C14.6369 21.9657 14.5357 21.9522 14.5323 21.9556C14.5289 21.9589 14.5323 22.1759 14.5391 22.4436L14.5492 22.925L14.4918 23.0131C14.4615 23.0605 14.4311 23.1012 14.4311 23.1046C14.421 23.1148 14.3873 23.0605 14.3097 22.9046C14.2254 22.7419 14.1647 22.5691 14.1208 22.3894L14.0972 22.2911L13.9927 22.2979L13.8881 22.3081L13.8611 22.1827C13.8476 22.1149 13.8308 22.0098 13.824 21.9522L13.8139 21.8437L13.7262 21.7657C13.6756 21.7217 13.625 21.6776 13.6149 21.6708C13.5981 21.6573 13.5913 21.6335 13.5913 21.6132V21.5725L14.0129 21.5759L14.4345 21.5793L14.448 21.6234L14.4615 21.6674L14.6065 21.6742C14.6875 21.6776 14.9438 21.6844 15.1731 21.6912L15.5947 21.7013L15.7027 21.5319L15.814 21.3624H15.9556L15.9523 21.0099L15.9489 20.6574L15.7634 20.576C15.1664 20.3116 14.8156 20.01 14.6841 19.6439C14.6571 19.5693 14.6571 19.5422 14.6504 19.2033C14.647 18.8677 14.647 18.8372 14.6706 18.7626C14.7178 18.5932 14.8494 18.461 15.018 18.4169C15.0753 18.4 15.2271 18.4 16.0231 18.4L16.9607 18.4034L17.0653 18.4542C17.1901 18.5152 17.2474 18.5593 17.3182 18.6542C17.3992 18.7626 17.4228 18.8474 17.4228 19.0541C17.4228 19.349 17.4025 19.6032 17.3722 19.7049C17.3283 19.8439 17.2609 19.9761 17.1766 20.0947C17.0079 20.3116 16.701 20.5286 16.4211 20.6269L16.3401 20.6574L16.3435 21.0133L16.3469 21.3692L16.4211 21.3759L16.4953 21.3827L16.5965 21.5353L16.6943 21.6878H17.1462C17.3958 21.6878 17.615 21.6912 17.6353 21.6946C17.669 21.7013 17.6757 21.698 17.7095 21.6403L17.7499 21.5793H18.1378C18.4279 21.5658 18.5156 21.5725 18.5156 21.5827Z" fill="black"/>
<path d="M16.7351 22.5555C16.671 22.5928 16.6272 22.6097 16.6171 22.6029C16.607 22.5996 16.5597 22.5589 16.5092 22.5216L16.4181 22.447L16.3237 22.5487C16.1179 22.7724 16.1112 22.7826 16.0505 22.786C15.956 22.7961 15.9358 22.7792 15.8211 22.6063C15.7604 22.5182 15.7132 22.4436 15.7132 22.4436C15.7132 22.4436 15.6693 22.4369 15.6187 22.4335L15.5243 22.4233L15.4805 22.5148L15.4366 22.6063L15.359 22.5826C15.2983 22.5623 15.2376 22.5385 15.1803 22.5114L15.0791 22.4606V22.2674L15.9763 22.2708L16.8734 22.2742L16.8768 22.3657C16.8802 22.4741 16.8835 22.4708 16.7351 22.5555Z" fill="black"/>
<path d="M25.167 18.4203C25.1636 18.4068 25.1636 18.3831 25.1602 18.3458C24.3507 18.2576 22.0404 18.2034 19.8953 19.9829C19.8953 19.9829 19.2039 16.7968 15.966 16.7968C12.7282 16.7968 11.5275 19.9829 11.5275 19.9829C9.71292 18.0204 7.28452 18.1627 6.4076 18.2915C6.4076 18.3119 6.40423 18.3356 6.40423 18.3559C6.37725 18.8474 6.39074 19.0813 6.47169 19.3897C6.72464 20.3557 7.50376 21.4201 8.7247 22.464C10.7248 24.1723 13.4365 25.4061 15.4905 25.5485C17.6322 25.6942 20.7925 24.4367 22.8971 22.5996C23.2276 22.3047 23.5379 21.9929 23.828 21.6607C24.0371 21.4167 24.3474 20.9964 24.3238 20.9964C24.317 20.9964 24.3238 20.9896 24.3373 20.9828C24.3474 20.976 24.3575 20.9659 24.3507 20.9591C24.3474 20.9557 24.3541 20.9455 24.3642 20.9421C24.3744 20.9387 24.3811 20.932 24.3777 20.9252C24.3744 20.9184 24.3777 20.9116 24.3912 20.9082C24.4013 20.9048 24.4047 20.8947 24.4013 20.8879C24.398 20.8811 24.4013 20.8743 24.4081 20.8743C24.4148 20.8743 24.4216 20.8642 24.4216 20.8574C24.4216 20.8506 24.4283 20.8404 24.4351 20.8404C24.4418 20.8404 24.4486 20.8337 24.4486 20.8269C24.4587 20.7998 24.4755 20.7727 24.4924 20.7489C24.543 20.671 24.7454 20.3083 24.7723 20.2473C24.9646 19.81 25.086 19.4202 25.1433 19.0305C25.1636 18.844 25.1805 18.5017 25.167 18.4203ZM16.735 22.5555C16.6709 22.5928 16.6271 22.6098 16.617 22.603C16.6069 22.5996 16.5596 22.5589 16.5091 22.5216L16.418 22.4471L16.3235 22.5488C16.1178 22.7725 16.1111 22.7826 16.0504 22.786C15.9559 22.7962 15.9357 22.7792 15.821 22.6064C15.7603 22.5183 15.7131 22.4437 15.7131 22.4437C15.7131 22.4437 15.6692 22.4369 15.6186 22.4335L15.5242 22.4233L15.4804 22.5149L15.4365 22.6064L15.3589 22.5827C15.2982 22.5623 15.2375 22.5386 15.1802 22.5115L15.079 22.4606V22.2674L15.9762 22.2708L16.8733 22.2742L16.8767 22.3657C16.8801 22.4742 16.8834 22.4708 16.735 22.5555ZM18.4214 21.9454C18.3708 22.1386 18.3303 22.2945 18.3303 22.3013C18.2932 22.3047 18.2595 22.3081 18.2224 22.3047H18.1145L17.9695 22.6606C17.8885 22.8538 17.8143 23.0335 17.8042 23.0606L17.784 23.108L17.7131 22.9928L17.6423 22.8775V21.9386L17.6153 21.9454C17.558 21.959 17.1499 22.0132 16.9711 22.0302C16.2325 22.1047 15.4905 22.0878 14.7552 21.9827C14.6372 21.9658 14.536 21.9522 14.5326 21.9556C14.5292 21.959 14.5326 22.1759 14.5394 22.4437L14.5495 22.925L14.4921 23.0131C14.4618 23.0606 14.4314 23.1012 14.4314 23.1046C14.4213 23.1148 14.3876 23.0606 14.31 22.9047C14.2257 22.742 14.165 22.5691 14.1211 22.3894L14.0975 22.2912L13.993 22.2979L13.8884 22.3081L13.8614 22.1827C13.8479 22.1149 13.8311 22.0098 13.8243 21.9522L13.8142 21.8437L13.7265 21.7658C13.6759 21.7217 13.6253 21.6777 13.6152 21.6709C13.5984 21.6573 13.5916 21.6336 13.5916 21.6133V21.5726L14.0132 21.576L14.4348 21.5794L14.4483 21.6234L14.4618 21.6675L14.6068 21.6743C14.6878 21.6777 14.9441 21.6844 15.1734 21.6912L15.595 21.7014L15.703 21.5319L15.8143 21.3624H15.9559L15.9525 21.0099L15.9492 20.6574L15.7637 20.5761C15.1667 20.3117 14.8159 20.01 14.6844 19.644C14.6574 19.5694 14.6574 19.5423 14.6507 19.2033C14.6473 18.8678 14.6473 18.8372 14.6709 18.7627C14.7181 18.5932 14.8497 18.461 15.0183 18.417C15.0756 18.4 15.2274 18.4 16.0234 18.4L16.961 18.4034L17.0656 18.4542C17.1904 18.5152 17.2477 18.5593 17.3185 18.6542C17.3995 18.7627 17.4231 18.8474 17.4231 19.0542C17.4231 19.3491 17.4028 19.6033 17.3725 19.705C17.3286 19.8439 17.2612 19.9761 17.1769 20.0948C17.0082 20.3117 16.7013 20.5286 16.4214 20.6269L16.3404 20.6574L16.3438 21.0133L16.3472 21.3692L16.4214 21.376L16.4956 21.3828L16.5967 21.5353L16.6946 21.6878H17.1465C17.3961 21.6878 17.6153 21.6912 17.6356 21.6946C17.6693 21.7014 17.676 21.698 17.7098 21.6404L17.7502 21.5794H18.1381C18.4383 21.5794 18.526 21.5827 18.526 21.5929C18.5159 21.5895 18.472 21.7556 18.4214 21.9454Z" fill="white"/>
<path d="M25.14 18.0746C25.1333 17.9221 25.1198 17.7085 25.1096 17.6034C24.9646 16.0646 24.5734 14.8071 23.8314 13.475C23.801 13.4242 23.774 13.3733 23.7572 13.3327C23.7504 13.3225 23.747 13.3123 23.7437 13.3056C23.8482 12.9903 24.2766 11.6718 24.6172 10.1635C25.0793 8.11622 25.3727 5.72323 24.4756 5.00466C24.4756 5.00466 22.9241 4.88941 20.8465 6.93667C20.2832 7.50272 19.7672 8.11622 19.3085 8.7704L19.1634 8.72294C18.327 8.44839 17.4602 8.27892 16.5866 8.2213C16.3236 8.20096 15.3421 8.20096 15.0217 8.2213C14.0537 8.2857 13.3117 8.43145 12.4685 8.72633C12.4348 8.73989 12.4044 8.75006 12.3741 8.76023C11.8985 8.10944 11.369 7.49933 10.7855 6.94006C8.62354 4.88264 7.01472 5.00127 7.01472 5.00127C6.0636 5.74357 6.38739 8.24502 6.87981 10.3601C7.2036 11.7599 7.60159 12.9903 7.74999 13.4344C7.73987 13.4581 7.72638 13.4852 7.71289 13.5089C6.92703 15.1088 6.50206 16.651 6.40088 18.2915C7.28117 18.1627 9.7062 18.017 11.5241 19.9829C11.5241 19.9829 12.7248 16.7967 15.9627 16.7967C19.2005 16.7967 19.892 19.9829 19.892 19.9829C22.037 18.2034 24.3474 18.261 25.1569 18.3457C25.1535 18.278 25.1467 18.1763 25.14 18.0746ZM8.38744 12.1565C8.38744 12.1565 7.12602 8.98732 7.44981 7.17733C7.50377 6.87227 7.60496 6.6045 7.76348 6.40113C7.76348 6.40113 9.19353 6.54349 11.5005 9.11951C11.5005 9.11951 11.0621 9.33305 10.4752 9.78725C10.4752 9.78725 10.4718 9.79064 10.4684 9.79064C9.83099 10.2821 9.01478 11.0617 8.38744 12.1565ZM13.74 16.8645C13.7198 16.9052 13.6186 16.9493 13.5039 16.9662C13.3893 16.9832 13.0385 16.973 12.8395 16.9493C12.1245 16.8544 11.3656 16.634 10.8125 16.3629C10.5022 16.2104 10.2796 16.0578 10.1143 15.8917L10.0199 15.7934L10.0097 15.6646C9.99288 15.4409 9.99625 15.0884 10.0232 14.963C10.0401 14.8579 10.0772 14.7563 10.1278 14.6647C10.1548 14.6308 10.1548 14.6308 10.2762 14.6308C10.4246 14.6308 10.5494 14.6546 10.7518 14.719C11.1666 14.8478 11.7838 15.1596 12.536 15.6138C13.1565 15.9866 13.3893 16.1697 13.568 16.4205C13.6894 16.5764 13.7704 16.7967 13.74 16.8645ZM21.6863 15.7426C21.6762 15.7968 21.5176 15.9595 21.3591 16.0782C20.8937 16.4205 20.0606 16.7391 19.214 16.8916C18.7317 16.9798 18.2494 16.9933 18.1044 16.9222C18.01 16.8747 17.9965 16.8374 18.0302 16.7154C18.101 16.4612 18.3304 16.1832 18.6879 15.9222C18.87 15.7901 19.6087 15.3393 19.9527 15.1494C20.5193 14.8376 20.978 14.6512 21.2883 14.6071C21.3861 14.5936 21.5042 14.5902 21.5413 14.6071C21.602 14.6308 21.6694 14.8105 21.6964 15.0274C21.7099 15.1427 21.7031 15.6511 21.6863 15.7426ZM21.1264 9.78725L21.1197 9.78386C20.553 9.32966 20.1281 9.11613 20.1281 9.11613C22.3575 6.5401 23.7369 6.39774 23.7369 6.39774C23.8887 6.6045 23.9865 6.86888 24.0405 7.17394C24.3541 8.98393 23.1366 12.1565 23.1366 12.1565C22.6273 11.2447 21.9426 10.438 21.1264 9.78725Z" fill="#FFA409"/>
<path d="M24.0437 7.17396C23.7806 7.14007 22.5361 7.13329 21.1263 9.78727L21.1195 9.78388C20.5529 9.32969 20.1279 9.11615 20.1279 9.11615C22.3573 6.54012 23.7368 6.39777 23.7368 6.39777C23.8919 6.60453 23.9897 6.86891 24.0437 7.17396Z" fill="#FF9300"/>
<path d="M23.14 12.1565C22.6273 11.2414 21.946 10.438 21.1265 9.78726C22.5363 7.13328 23.7775 7.14006 24.0439 7.17395C24.3576 8.98734 23.14 12.1565 23.14 12.1565Z" fill="#FF8300"/>
<path d="M24.0954 7.18429C24.0782 7.18084 24.0611 7.1774 24.0439 7.17395L24.0954 7.18429Z" fill="#FF8300"/>
<path d="M11.5004 9.11612C11.5004 9.11612 11.0619 9.32966 10.475 9.78385C10.475 9.78385 10.4717 9.78724 10.4683 9.78724C9.00788 7.12987 7.72286 7.14004 7.44629 7.17393C7.50025 6.86888 7.60144 6.60111 7.75996 6.39774C7.76333 6.39774 9.19338 6.54009 11.5004 9.11612Z" fill="#FF9300"/>
<path d="M10.4716 9.78726C9.83081 10.2821 9.0146 11.0583 8.38727 12.1565C8.38727 12.1565 7.12585 8.98734 7.44963 7.17395C7.72283 7.14006 9.01123 7.13328 10.4716 9.78726Z" fill="#FF8300"/>
<path d="M7.45037 7.17395C7.43322 7.1774 7.41265 7.18084 7.39551 7.18429L7.45037 7.17395Z" fill="#FF8300"/>
<path d="M19.7266 13.9157C19.7266 13.9157 18.6473 13.9834 18.7822 13.1361C18.9171 12.2887 19.7603 12.187 19.9964 12.2209C20.2325 12.2548 21.1768 12.5937 21.0082 13.3055C20.8396 14.0173 20.6035 13.8818 20.4686 13.9157C20.3337 13.9495 19.7266 13.9157 19.7266 13.9157Z" fill="white"/>
<path d="M11.7666 13.9157C11.7666 13.9157 10.6873 13.9834 10.8222 13.1361C10.9571 12.2887 11.8003 12.187 12.0364 12.2209C12.2725 12.2548 13.2169 12.5937 13.0482 13.3055C12.8796 14.0173 12.6435 13.8818 12.5086 13.9157C12.3737 13.9495 11.7666 13.9157 11.7666 13.9157Z" fill="white"/>
<circle cx="16" cy="16" r="15.5" stroke="#D8D9E2"/>
</svg>
