<svg width="32" height="32" viewBox="0 0 32 32" fill="none" xmlns="http://www.w3.org/2000/svg">
<circle cx="16" cy="16" r="16" fill="#50AF95"/>
<path fill-rule="evenodd" clip-rule="evenodd" d="M17.5114 16.7913C17.4215 16.798 16.9575 16.8256 15.9224 16.8256C15.0991 16.8256 14.5145 16.801 14.3095 16.7913C11.1278 16.652 8.75294 16.1006 8.75294 15.4405C8.75294 14.7803 11.1278 14.2297 14.3095 14.0882V16.2422C14.5175 16.2571 15.1133 16.2921 15.9366 16.2921C16.9246 16.2921 17.4193 16.2511 17.5084 16.2429V14.0897C20.6833 14.2305 23.0529 14.7818 23.0529 15.4405C23.0529 16.0991 20.6841 16.6505 17.5084 16.7906L17.5114 16.7913ZM17.5114 13.8669V11.9393H21.9422V9H9.87862V11.9393H14.3087V13.8661C10.7079 14.0308 8 14.7409 8 15.5917C8 16.4426 10.7079 17.1519 14.3087 17.3173V23.4941H17.5106V17.3151C21.1032 17.1504 23.8066 16.4411 23.8066 15.591C23.8066 14.7409 21.1054 14.0315 17.5106 13.8661L17.5114 13.8669Z" fill="white"/>
</svg>
