<svg width="32" height="32" viewBox="0 0 32 32" fill="none" xmlns="http://www.w3.org/2000/svg">
<path d="M16 32C24.8366 32 32 24.8366 32 16C32 7.16344 24.8366 0 16 0C7.16344 0 0 7.16344 0 16C0 24.8366 7.16344 32 16 32Z" fill="#FF001D"/>
<path d="M26.5127 11.2627C25.6052 10.6278 24.6349 9.95072 23.6852 9.28C23.6647 9.26464 23.6429 9.248 23.6173 9.23264C23.5124 9.15456 23.3921 9.07008 23.2449 9.02272L23.2346 9.0176C20.6951 8.4032 18.1146 7.77472 15.6173 7.16544C13.3517 6.61504 11.09 6.06336 8.82438 5.51296C8.76678 5.4976 8.70918 5.48096 8.64646 5.4656C8.44166 5.408 8.20614 5.34528 7.95398 5.376C7.88102 5.38624 7.81702 5.41312 7.75942 5.44896L7.6967 5.50144C7.59686 5.59616 7.54438 5.71648 7.51878 5.78432L7.50342 5.82656V6.06848L7.51366 6.1056C8.94598 10.1184 10.4141 14.1901 11.8311 18.1286C12.9217 21.161 14.0557 24.3034 15.1617 27.3882C15.2295 27.5981 15.4241 27.7338 15.6647 27.7555H15.7172C15.9425 27.7555 16.1421 27.6454 16.242 27.4675L20.3969 21.408C21.4093 19.9334 22.4218 18.455 23.4343 16.9805C23.849 16.3776 24.2637 15.7683 24.6772 15.1654C25.3594 14.1683 26.0621 13.1405 26.7597 12.1382L26.7969 12.0858V12.023C26.8122 11.84 26.8173 11.4624 26.5127 11.2627ZM21.6449 13.472C20.6695 13.9814 19.6724 14.505 18.6701 15.0246C19.2525 14.4 19.8401 13.7702 20.4225 13.1469C21.1521 12.3597 21.9124 11.5469 22.6573 10.7494L22.6727 10.7341C22.7354 10.6496 22.8148 10.5715 22.898 10.487C22.9556 10.4294 23.0183 10.3718 23.0759 10.304C23.4637 10.5715 23.858 10.8442 24.2356 11.1117C24.5082 11.3062 24.786 11.4995 25.0701 11.6941C23.9156 12.2803 22.7623 12.8845 21.6449 13.472ZM19.1373 13.2198C18.3873 14.0326 17.6103 14.8672 16.8397 15.6902C15.3447 13.8752 13.8177 12.0333 12.3393 10.2554C11.6673 9.44768 10.9914 8.63488 10.3194 7.82592L10.3143 7.8208C10.162 7.648 10.0148 7.45856 9.86886 7.28064C9.77414 7.16032 9.6743 7.04512 9.57446 6.92352C10.1825 7.08096 10.7969 7.22816 11.3997 7.36896C11.9297 7.4944 12.4801 7.62624 13.0202 7.76192C16.0628 8.50176 19.1105 9.2416 22.153 9.98144C21.1405 11.063 20.1229 12.16 19.1373 13.2198ZM16.498 23.4445C16.5556 22.8941 16.6183 22.327 16.6708 21.7715C16.7181 21.3261 16.7655 20.8691 16.8129 20.4339C16.8858 19.7363 16.9652 19.0118 17.0279 18.304L17.0433 18.1786C17.0957 17.728 17.1482 17.2608 17.1802 16.7936C17.2378 16.7616 17.3005 16.7309 17.3697 16.704C17.4477 16.6669 17.5271 16.6362 17.6052 16.5888C18.8173 15.9539 20.0282 15.319 21.2455 14.6893C22.4577 14.0595 23.7005 13.4093 24.9332 12.7642C23.8106 14.3898 22.6829 16.032 21.5911 17.632C20.6516 19.0016 19.6865 20.4122 18.7265 21.8022C18.3489 22.3578 17.9559 22.9248 17.5834 23.4701C17.1636 24.0781 16.7335 24.7027 16.3137 25.3274C16.3674 24.6976 16.4301 24.0627 16.498 23.4445ZM9.18534 8.16256C9.1175 7.97312 9.04326 7.77984 8.98054 7.59552C10.3975 9.3056 11.8234 11.0259 13.2135 12.695C13.9316 13.5603 14.6509 14.4205 15.369 15.2922C15.5111 15.4547 15.6519 15.6275 15.7889 15.7952C15.9668 16.0102 16.146 16.2355 16.3393 16.4506C16.2765 16.9907 16.2241 17.536 16.1665 18.0608C16.1293 18.4282 16.0935 18.7955 16.0513 19.168V19.1731C16.0359 19.4086 16.0039 19.6454 15.9783 19.8758C15.9412 20.1958 15.858 20.9203 15.858 20.9203L15.8529 20.9574C15.7581 22.0173 15.6429 23.0874 15.5329 24.1254C15.4855 24.5555 15.4433 24.9958 15.3959 25.4374C15.3703 25.3594 15.3383 25.28 15.3114 25.207C15.2333 24.9971 15.154 24.777 15.081 24.5619L14.5191 23.0042C12.7425 18.057 10.9645 13.1149 9.18534 8.16256Z" fill="white"/>
</svg>
