<svg width="32" height="32" viewBox="0 0 32 32" fill="none" xmlns="http://www.w3.org/2000/svg">
<g clip-path="url(#clip0_15117_3096)">
<path d="M16 31.5C24.5604 31.5 31.5 24.5604 31.5 16C31.5 7.43959 24.5604 0.5 16 0.5C7.43959 0.5 0.5 7.43959 0.5 16C0.5 24.5604 7.43959 31.5 16 31.5Z" fill="white" stroke="#D8D9E2"/>
<path d="M23.7775 6H26.9571L20.34 12.838C17.9436 15.313 14.0584 15.313 11.6603 12.838L5.04053 6H8.22279L13.2501 11.1944C13.9826 11.9478 14.9697 12.3702 15.9982 12.3702C17.0266 12.3702 18.0138 11.9478 18.7462 11.1944L23.7775 6Z" fill="#23292F"/>
<path d="M8.18184 25.0143H5L11.6602 18.1342C14.0565 15.6592 17.9418 15.6592 20.3398 18.1342L27 25.0143H23.8203L18.75 19.7778C18.0175 19.0243 17.0304 18.602 16.0019 18.602C14.9735 18.602 13.9863 19.0243 13.2539 19.7778L8.18184 25.0143Z" fill="#23292F"/>
</g>
<defs>
<clipPath id="clip0_15117_3096">
<rect width="32" height="32" fill="white"/>
</clipPath>
</defs>
</svg>
