<svg width="32" height="32" viewBox="0 0 32 32" fill="none" xmlns="http://www.w3.org/2000/svg">
<g clip-path="url(#clip0_8179_6716)">
<path d="M16.1671 29.4094C8.87618 29.4094 2.92456 23.4519 2.92456 16.167C2.92456 8.87615 8.88219 2.92453 16.1671 2.92453C23.4579 2.92453 29.4094 8.88216 29.4094 16.167C29.4094 23.4579 23.4579 29.4094 16.1671 29.4094Z" fill="url(#paint0_linear_8179_6716)"/>
<path d="M16 32C7.2 32 0 24.8 0 16C0 7.2 7.2 0 16 0C24.8 0 32 7.2 32 16C32 24.8 24.8 32 16 32ZM16 3.55763C9.15763 3.55763 3.55763 9.15763 3.55763 16C3.55763 22.8424 9.15763 28.4424 16 28.4424C22.8424 28.4424 28.4424 22.8424 28.4424 16C28.4424 9.15763 22.8424 3.55763 16 3.55763Z" fill="black"/>
<path d="M15.6294 20.334H22.5628V23.8007H18.4719V26.734H14.9143V23.8916H10.6476C10.6476 22.734 10.4719 21.5825 10.7385 20.5159C10.8294 19.9825 11.4476 19.4491 11.896 18.9159C13.2294 17.3159 14.5628 15.7159 15.987 14.1159C16.5203 13.4916 17.0537 12.9582 17.6779 12.2492H11.0113V8.78247H14.9203V5.84961H18.387V8.69121H22.6537C22.6537 9.84871 22.8294 11.0003 22.5628 12.067C22.4719 12.6003 21.8537 13.1336 21.4052 13.667C20.0719 15.267 18.7385 16.867 17.3143 18.467C16.7808 19.0916 16.2476 19.7097 15.6294 20.334Z" fill="black"/>
</g>
<defs>
<linearGradient id="paint0_linear_8179_6716" x1="7.07455" y1="25.2477" x2="25.3554" y2="6.96686" gradientUnits="userSpaceOnUse">
<stop stop-color="#CF8724"/>
<stop offset="1" stop-color="#FDCE58"/>
</linearGradient>
<clipPath id="clip0_8179_6716">
<rect width="32" height="32" fill="white"/>
</clipPath>
</defs>
</svg>
